<svg width="125" height="32" viewBox="0 0 125 32" fill="none" xmlns="http://www.w3.org/2000/svg">
<g clip-path="url(#clip0_2955_36008)">
<path d="M86.4975 26.7428C85.3386 26.7428 84.1798 26.3999 83.1368 25.8285C81.0508 24.6857 79.8919 22.5142 79.8919 20.2285C79.8919 15.7714 83.1368 13.5999 86.2657 13.4857C86.3816 13.4857 86.4975 13.4857 86.6134 13.4857C87.8882 13.4857 89.047 13.8285 89.9741 14.3999C90.4377 14.7428 90.6695 15.4285 90.3218 15.8857C89.9741 16.3428 89.2788 16.5714 88.8153 16.2285C88.2358 15.8857 87.5405 15.6571 86.7293 15.6571H86.4975C84.5274 15.7714 82.3255 17.0285 82.3255 20.2285C82.3255 21.8285 83.1368 23.1999 84.4115 23.8857C85.8022 24.6857 87.4246 24.6857 88.8153 23.8857C89.3947 23.5428 90.09 23.7714 90.3218 24.2285C90.6695 24.7999 90.4377 25.4857 89.9741 25.7142C88.8153 26.3999 87.6564 26.7428 86.4975 26.7428ZM71.8956 26.6285C70.7368 26.6285 69.5779 26.2857 68.5349 25.8285C66.9125 24.9142 65.6377 23.3142 65.29 21.5999C64.8265 19.6571 65.29 17.5999 66.6807 15.8857C67.8396 14.3999 69.6938 13.4857 71.548 13.4857H71.8956C74.0975 13.4857 76.2994 14.6285 77.5741 16.5714C78.733 18.2857 78.9648 20.5714 78.1536 22.6285C77.3424 24.5714 75.8358 25.9428 73.9816 26.3999C73.2863 26.6285 72.591 26.6285 71.8956 26.6285ZM72.0115 15.6571H71.548C70.3891 15.6571 69.2302 16.2285 68.419 17.2571C67.4919 18.3999 67.2601 19.7714 67.4919 21.0285C67.7237 22.1714 68.5349 23.1999 69.6938 23.8857C70.8527 24.4571 72.1274 24.5714 73.2863 24.2285C74.5611 23.8857 75.6041 22.9714 76.0676 21.7142C76.647 20.3428 76.4153 18.8571 75.7199 17.7142C74.9087 16.4571 73.4022 15.6571 72.0115 15.6571ZM117.903 26.6285C117.324 26.6285 116.744 26.1714 116.744 25.4857V20.9142C116.744 18.9714 116.976 16.7999 119.062 15.0857C120.221 14.0571 121.727 13.4857 123.466 13.4857C124.045 13.4857 124.625 13.9428 124.625 14.6285C124.625 15.1999 124.161 15.7714 123.466 15.7714C122.307 15.7714 121.264 16.1142 120.569 16.9142C119.41 17.8285 119.062 18.9714 119.062 21.0285V25.5999C118.946 26.1714 118.483 26.6285 117.903 26.6285ZM57.1779 26.6285C55.6713 26.6285 54.2807 26.1714 53.0059 25.2571C51.1517 23.8857 50.2246 21.5999 50.4564 19.1999C50.8041 16.7999 52.3106 14.7428 54.5125 13.8285C55.2078 13.5999 55.9031 13.3714 56.8302 13.3714C56.9461 13.3714 57.062 13.3714 57.2938 13.3714C58.8003 13.3714 60.3069 13.9428 61.5816 15.0857V10.3999C61.5816 9.82851 62.0452 9.25708 62.7405 9.25708C63.4358 9.25708 63.8994 9.71422 63.8994 10.3999V19.8857C63.8994 19.9999 63.8994 20.1142 63.8994 20.1142C63.8994 20.9142 63.6676 21.9428 63.3199 22.7428C62.5087 24.4571 61.0022 25.8285 59.0321 26.2857C58.4526 26.6285 57.8732 26.6285 57.1779 26.6285ZM57.2938 15.6571C57.1779 15.6571 57.1779 15.6571 57.062 15.6571C56.3667 15.6571 55.7872 15.7714 55.4396 15.9999C53.933 16.5714 52.89 17.9428 52.7741 19.5428C52.5424 21.1428 53.2377 22.6285 54.3966 23.5428C55.5555 24.4571 57.062 24.6857 58.4526 24.3428C59.7274 23.9999 60.7704 23.1999 61.234 22.0571C61.4657 21.4857 61.6975 20.7999 61.6975 20.2285V19.9999C61.6975 19.0857 61.3498 18.2857 60.8863 17.5999C59.9592 16.3428 58.6844 15.6571 57.2938 15.6571ZM99.5928 26.6285C99.3611 26.6285 99.0134 26.5142 98.7816 26.2857L95.1891 22.7428V25.4857C95.1891 26.0571 94.7255 26.6285 94.0302 26.6285C93.4508 26.6285 92.8713 26.1714 92.8713 25.4857V20.1142V10.5142C92.8713 9.94279 93.3349 9.37137 94.0302 9.37137C94.6097 9.37137 95.1891 9.82851 95.1891 10.5142V17.4857L98.7816 13.9428C99.2452 13.4857 99.9405 13.4857 100.404 13.9428C100.868 14.3999 100.868 15.0857 100.404 15.5428L95.6526 20.2285L100.404 24.9142C100.868 25.3714 100.868 26.0571 100.404 26.5142C100.172 26.5142 99.9405 26.6285 99.5928 26.6285ZM108.864 26.6285C107.821 26.6285 106.778 26.3999 105.967 26.0571C105.271 25.8285 104.808 25.4857 104.46 25.1428C102.142 22.9714 101.447 20.2285 102.49 17.5999C103.533 15.0857 105.967 13.3714 108.632 13.3714C110.834 13.3714 112.92 14.3999 114.195 15.9999C114.311 16.2285 114.658 16.6857 114.658 16.6857C114.89 17.1428 114.774 17.7142 114.426 18.0571L107.241 24.1142C108.516 24.5714 110.139 24.4571 110.95 23.8857C111.413 23.5428 112.109 23.6571 112.572 24.1142C112.92 24.5714 112.804 25.2571 112.34 25.7142C111.298 26.3999 110.023 26.6285 108.864 26.6285ZM108.516 15.6571C106.778 15.6571 105.155 16.7999 104.46 18.3999C103.881 19.8857 104.112 21.4857 105.271 22.8571L111.993 17.1428C111.182 16.1142 110.023 15.6571 108.516 15.6571Z" fill="#066DA5"/>
<path d="M27.8582 14.5142H32.8413V10.057H27.8582V14.5142ZM21.9479 14.5142H26.9311V10.057H21.9479V14.5142ZM16.1535 14.5142H21.1367V10.057H16.1535V14.5142ZM10.3591 14.5142H15.2264V10.057H10.3591V14.5142ZM4.44882 14.5142H9.43199V10.057H4.44882V14.5142ZM10.3591 9.14275H15.2264V4.68561H10.3591V9.14275ZM16.1535 9.14275H21.1367V4.68561H16.1535V9.14275ZM21.9479 9.14275H26.9311V4.68561H21.9479V9.14275ZM21.9479 3.77132H26.9311V-0.571533H21.9479V3.77132ZM48.6021 12.5713C48.6021 12.5713 46.5161 10.6285 42.1124 11.3142C41.6488 7.88561 37.9404 5.94275 37.9404 5.94275C37.9404 5.94275 34.4638 10.057 37.0133 14.5142C36.318 14.857 35.1591 15.3142 33.3049 15.3142H0.856293C0.392741 17.4856 0.392741 32.2285 16.617 32.2285C28.3217 32.2285 37.0133 26.857 41.1853 17.1428C47.3273 17.4856 48.6021 12.5713 48.6021 12.5713Z" fill="#066DA5"/>
</g>
<defs>
<clipPath id="clip0_2955_36008">
<rect width="124" height="32" fill="white" transform="translate(0.392578)"/>
</clipPath>
</defs>
</svg>
