<svg width="88" height="36" viewBox="0 0 88 36" fill="none" xmlns="http://www.w3.org/2000/svg">
<path d="M34.8732 25.2128C35.8462 26.7357 36.8403 28.2586 37.8556 29.8662C39.1035 28.4278 39.9073 26.7146 41.0283 25.1917C41.3667 25.4666 41.2187 25.7839 41.2187 26.0589C41.2398 28.4067 41.2187 30.7757 41.2398 33.1235C41.2398 33.7792 41.0918 34.0542 40.3515 34.033C38.7016 33.9696 37.0518 34.0119 35.3808 34.0119C34.979 34.0119 34.6194 34.0542 34.6405 33.4408C34.6617 30.7122 34.6405 27.9837 34.6405 25.234C34.7251 25.2551 34.8098 25.234 34.8732 25.2128Z" fill="#880101"/>
<path d="M83.8603 10.2796C82.9084 9.94114 82.8027 10.6391 82.5912 11.2314C82.5066 11.4852 82.4008 11.7602 82.3162 12.014C82.3797 12.3101 82.2527 12.5428 82.0201 12.7331C81.8509 12.4582 81.872 12.2255 82.1258 12.0351C82.1893 11.5487 82.1893 11.041 82.3585 10.5968C82.5277 10.1315 82.4854 9.87768 82.0201 9.70847C80.4972 9.09508 78.9954 8.37592 77.4513 7.86828C72.2269 6.13385 66.939 4.65324 61.5242 3.68027C56.892 2.83421 52.2598 2.0516 47.5218 2.30542C46.7604 2.34772 46.0201 2.49578 45.1952 2.81305C45.8086 3.13033 46.3162 3.38415 46.8027 3.63797C47.2257 3.82833 47.7334 3.80718 48.1141 4.35712C47.4795 4.31482 46.9931 4.1456 46.5489 3.84948C45.7663 3.78603 45.0683 3.4476 44.328 3.25724C42.657 2.83421 40.986 2.41117 39.2304 2.58039C37.919 2.7073 37.4537 3.15148 37.3902 4.39942C37.3479 5.4147 37.4114 6.45113 37.7921 7.40295C39.3362 11.4429 42.0436 14.4464 45.9566 16.3078C46.4643 16.4981 46.9719 16.6673 47.4795 16.8577C46.9508 16.8789 46.422 16.9212 45.9566 16.6039C40.6476 14.5733 37.3056 10.9141 36.5442 5.13973C36.4807 4.58979 36.3115 4.46288 35.7827 4.42058C31.6159 4.18791 27.5759 4.92821 23.6417 6.23961C18.5442 7.93174 13.8697 10.4699 9.51244 13.5792C7.50304 15.0175 5.49364 16.477 3.56885 18.3806C4.288 18.2326 4.79564 18.148 5.28213 17.9999C9.21632 16.8366 13.1505 16.3501 17.2539 17.1115C20.7016 17.7461 23.7686 19.0363 26.1587 21.6803C26.6664 22.2302 27.1529 22.7802 27.8086 23.4993C27.8086 21.6803 27.8297 20.0727 27.7874 18.4652C27.7663 17.8307 27.9143 17.6192 28.5912 17.6403C30.3256 17.6826 32.0389 17.6826 33.7733 17.6403C34.429 17.6192 34.7886 17.8307 35.0847 18.4229C35.9519 20.1151 36.8826 21.7649 37.8344 23.5205C38.8497 21.6591 39.8227 19.9458 40.7322 18.2114C40.9649 17.7672 41.2398 17.6192 41.7052 17.6403C43.6088 17.6615 45.5124 17.6615 47.4161 17.6403C47.9872 17.6403 48.1141 17.8307 48.1141 18.3595C48.0929 20.4746 48.0929 22.5898 48.0929 24.7049C48.0929 26.101 48.0929 27.4758 48.0929 28.9776C48.664 28.5968 49.1082 28.3642 49.4043 27.8988C50.5677 26.1221 52.2598 25.1491 54.3115 24.7261C56.7862 24.2396 59.2821 24.3242 61.778 24.2396C63.1952 24.1973 63.1952 24.1973 62.6029 22.9494C62.053 21.8072 62.2645 21.2784 63.5124 20.94C64.9719 20.5381 66.4314 20.1997 67.912 19.8824C71.6135 19.0998 75.315 18.2326 79.0589 17.6192C82.3374 17.0904 84.0929 15.1656 84.8967 12.1409C85.1505 11.1679 84.8121 10.618 83.8603 10.2796ZM46.9931 9.34889C46.5066 9.09508 46.0835 8.90471 45.5336 8.62974C45.6817 9.26429 46.147 9.62387 46.1893 10.195C45.5336 10.2584 45.0471 9.58156 44.328 9.70847C44.9202 10.5122 45.7028 11.0622 46.1047 11.9294C45.7663 12.0774 45.4701 11.6967 45.1317 11.9294C45.4913 12.4793 45.8509 13.0081 46.3585 13.7696C45.0894 13.41 44.3914 12.6274 43.63 11.9717C41.959 10.5545 40.5207 8.92586 39.8015 6.78955C39.6535 6.32422 39.4419 5.75313 39.865 5.39355C40.2457 5.07627 40.711 5.47815 41.1341 5.60506C43.1646 6.17616 44.9625 7.17028 46.57 8.50283C46.7392 8.6932 47.0565 8.79895 46.9931 9.34889ZM67.9543 16.8577C67.6793 16.9423 67.3832 17.0058 67.1082 17.0904C66.7698 17.175 66.4314 17.2384 66.0718 17.323C64.845 17.8095 63.5759 18.2326 62.3703 18.7825C60.0859 19.8189 59.8744 20.2631 60.2551 22.6744C58.7745 21.088 59.0072 19.7555 61.08 18.7402C62.5818 17.9999 64.1681 17.45 65.8391 17.1327C66.1352 16.9212 66.4948 16.8577 66.8544 16.8577C67.1928 16.6039 67.5735 16.6673 67.9543 16.7096C68.1869 16.6039 68.3985 16.3501 68.7369 16.6039C68.4619 16.7096 68.2081 16.7943 67.9543 16.8577ZM68.1869 10.0046C66.1141 10.195 64.0412 10.343 61.9895 9.91999C61.4396 9.81423 60.8896 9.51811 60.5724 9.05277C60.0436 8.27016 59.3667 7.82598 58.4149 7.69907C62.053 7.61447 65.4795 8.60859 69.0965 9.4335C68.758 9.79308 68.5042 9.96229 68.1869 10.0046Z" fill="#870000"/>
</svg>
