<svg width="94" height="36" viewBox="0 0 94 36" fill="none" xmlns="http://www.w3.org/2000/svg">
<g clip-path="url(#clip0_2955_35977)">
<path fill-rule="evenodd" clip-rule="evenodd" d="M21.5971 -0.0981445C21.3351 -0.0981445 21.0868 -0.0403179 20.8657 0.0379183C21.3419 0.357666 21.6073 0.779461 21.7399 1.26249C21.7501 1.33052 21.7671 1.37474 21.7739 1.43937C21.7807 1.504 21.7944 1.55162 21.7944 1.60945C21.8284 2.43603 21.5801 2.53808 21.3998 3.0279C21.2719 3.3238 21.2172 3.64614 21.2403 3.96765C21.2634 4.28915 21.3636 4.60037 21.5324 4.87496C21.5625 4.94787 21.6001 5.01742 21.6447 5.08245C21.2875 2.70815 23.2672 2.35099 23.6346 1.61285C23.6618 0.932532 23.1244 0.534548 22.706 0.231808C22.374 0.0225052 21.9895 -0.0883669 21.5971 -0.0879405V-0.0981445ZM24.5802 0.435902C24.5462 0.650201 24.57 0.595777 24.5598 0.708029L24.5394 0.952942L24.4714 1.17745C24.4507 1.25362 24.4257 1.32857 24.3966 1.40195L24.2945 1.61625C24.2673 1.65026 24.2469 1.69108 24.2197 1.7285L24.1618 1.81354L24.0258 2.00063C23.968 2.05845 23.9237 2.12308 23.8557 2.17071C23.7877 2.21833 23.7435 2.28296 23.6788 2.33058C23.4815 2.48025 23.257 2.5925 23.0495 2.73877C22.9815 2.78639 22.9135 2.82381 22.8624 2.87483C22.8114 2.92586 22.74 2.97008 22.6856 3.0245C22.6311 3.07893 22.5733 3.13675 22.5155 3.20138C22.4577 3.26601 22.4134 3.32384 22.3794 3.38847L22.2434 3.58576L22.1413 3.80006L22.0665 4.01436L21.9984 4.25247C21.9882 4.28649 21.9882 4.33751 21.978 4.37493C21.9678 4.41234 21.9678 4.44976 21.9576 4.48718L21.9474 4.72529C21.9461 4.78217 21.9495 4.83906 21.9576 4.89537C21.9576 4.9702 21.9678 5.04504 21.9848 5.13348C22.0018 5.22192 22.0121 5.28315 22.0325 5.35798L22.1073 5.58249C22.1277 5.63011 22.1549 5.67773 22.1753 5.71855L20.0187 4.88176L18.9302 4.59943L18.3384 4.46337C17.7737 4.35129 17.2038 4.26728 16.6308 4.21165C16.0569 4.14839 15.4801 4.1166 14.9028 4.11641L13.6782 4.16403C13.1026 4.2054 12.5293 4.27464 11.9604 4.37152L11.5386 4.44636L10.695 4.63345L10.2732 4.7457L9.86503 4.92258L9.55889 5.05864L9.25275 5.20831C9.22553 5.21852 9.20512 5.22872 9.18471 5.23552L8.89218 5.38519C8.82415 5.41241 8.75612 5.45323 8.70509 5.48044C8.67788 5.50085 8.63706 5.51445 8.62005 5.52806L8.37514 5.66412C8.2901 5.71174 8.21527 5.75937 8.15064 5.80019L7.96355 5.93625L7.75946 6.08592L7.59958 6.22198C7.49753 6.29682 7.44991 6.34444 7.40229 6.38186L7.19819 6.57915L7.01111 6.75603L6.85123 6.92611C6.83083 6.94652 6.80361 6.96012 6.7832 6.98393C6.73558 7.04176 6.68116 7.09619 6.62333 7.15401L6.37161 7.42614L5.86138 7.91256C5.6955 8.06053 5.52054 8.19799 5.33753 8.32415L4.77287 8.68132C4.58115 8.78668 4.38353 8.88095 4.181 8.96365C3.98371 9.04869 3.77281 9.12353 3.56872 9.18816C3.17413 9.27319 2.77275 9.43307 2.42238 9.46028C2.34755 9.46028 2.26251 9.48069 2.18427 9.48749L1.94616 9.54532L1.72166 9.63036C1.64682 9.65757 1.57199 9.69839 1.49716 9.73241C1.42232 9.76642 1.36109 9.81745 1.29306 9.86847C1.22651 9.91665 1.16394 9.97012 1.10597 10.0283C1.03794 10.076 0.969912 10.1406 0.918888 10.1984L0.759014 10.3855C0.711392 10.4603 0.656967 10.5216 0.622951 10.5998C0.588935 10.678 0.527707 10.7359 0.486888 10.8141L0.384841 11.059L0.299801 11.3039L0.252179 11.5284C0.224967 11.6407 0.224967 11.7529 0.218163 11.8108C0.21136 11.8686 0.197754 11.9332 0.197754 11.9979C0.197754 12.0319 0.197754 12.0829 0.207959 12.1203C0.218163 12.1883 0.228368 12.2428 0.241974 12.2972L0.310006 12.4673C0.337218 12.5353 0.378037 12.5897 0.412053 12.6442L0.53451 12.8142L0.694384 12.9639C0.752211 13.0217 0.806636 13.066 0.871266 13.1136C1.09577 13.3109 1.1536 13.3755 1.44273 13.5218C1.49035 13.549 1.53797 13.5694 1.5924 13.5966C1.64002 13.7327 1.66043 13.8007 1.67744 13.8789C1.69445 13.9572 1.72506 14.0388 1.75227 14.1034L1.82711 14.2735L1.96317 14.5252L2.09923 14.7225L2.25911 14.8994C2.31693 14.9572 2.37136 15.0014 2.43599 15.0593L2.62308 15.1953C2.68884 15.2417 2.75823 15.2826 2.83057 15.3178C2.8986 15.3518 2.96664 15.3926 3.04487 15.4198C3.1027 15.4471 3.16733 15.4675 3.23196 15.4879C3.29659 15.5083 3.35442 15.5219 3.39183 15.5355C3.36462 16.0457 3.35782 16.556 3.42585 16.692C3.51089 16.8791 3.92248 16.3077 4.33747 15.6511C4.27964 16.3315 4.24223 17.0594 4.33747 17.2839C4.43271 17.5084 5.00418 16.7873 5.49401 15.9777C12.1475 14.4402 18.2159 19.0391 18.8622 25.5293C18.7397 24.5157 17.4914 23.9544 16.9233 24.0939C16.641 24.7878 16.1647 25.679 15.3926 26.2369C15.4594 25.6098 15.4272 24.9762 15.2973 24.3592C15.0933 25.2232 14.6851 26.026 14.134 26.7233C13.7042 26.7525 13.2739 26.6753 12.8811 26.4985C12.4883 26.3217 12.1452 26.0507 11.8822 25.7096C11.8481 25.6824 11.8345 25.6246 11.8073 25.5871L11.7087 25.3558C11.6815 25.2878 11.6611 25.2198 11.6509 25.1585C11.6407 25.0973 11.6407 25.0225 11.6407 24.9545V24.8184C11.6509 24.7504 11.6679 24.6823 11.6883 24.6211L11.7563 24.4238C11.7903 24.3558 11.8243 24.2877 11.8686 24.2265C12.0284 23.7775 12.0284 23.4101 11.7325 23.1958C11.6747 23.1618 11.6202 23.1278 11.5556 23.1006C11.5216 23.0904 11.4706 23.0734 11.4332 23.0666L11.3583 23.0394L11.161 22.9917C11.0969 22.9735 11.0305 22.9643 10.9637 22.9645C10.8951 22.953 10.8258 22.9462 10.7562 22.9441C10.7086 22.9441 10.661 22.9543 10.6202 22.9543C10.5453 22.9543 10.4841 22.9645 10.4161 22.9815L10.2188 23.0156L10.0215 23.0836L9.83442 23.1686L9.65753 23.2639C7.47032 24.6925 8.77312 28.0261 10.2698 28.9989C9.70516 29.101 9.13369 29.2234 8.97722 29.3459C9.3616 29.6078 9.78339 29.8153 10.2256 30.0262L11.7461 30.4752C12.5224 30.6417 13.3178 30.7012 14.1102 30.6521C18.2669 30.3596 21.6753 27.1995 22.2944 23.0326L22.3522 23.2775L22.4373 23.8013C22.4577 23.8966 22.4645 23.9782 22.4713 24.053L22.4917 24.3354L22.5121 24.6415V24.7912C22.5121 24.8388 22.5223 24.8932 22.5223 24.9408C22.5223 24.9885 22.5121 25.0531 22.5121 25.1109V25.247C22.5121 25.315 22.5019 25.3694 22.5019 25.4341C22.5019 25.4681 22.5019 25.5089 22.4917 25.5565L22.4815 25.7606C22.4713 25.7878 22.4713 25.8185 22.4713 25.8457L22.4441 26.06C22.4441 26.0872 22.4441 26.1178 22.4338 26.145L22.3998 26.4171V26.4341L22.342 26.6961L22.2842 26.9784L22.1345 27.5567L22.0393 27.856L21.8352 28.4003L21.7229 28.6724L21.5869 28.9343C21.5767 28.9615 21.5664 28.9819 21.5596 29.0023C20.9342 30.2551 20.0244 31.3443 18.903 32.1828C18.8282 32.2304 18.7533 32.2849 18.6785 32.3427C18.6581 32.3631 18.6309 32.3699 18.6105 32.3903L18.4064 32.5264L18.4336 32.5842H18.4438L18.8384 32.5264H18.8486L19.5799 32.3903C19.648 32.3801 19.716 32.3631 19.784 32.3427L19.9201 32.3155L20.1174 32.2814L20.2875 32.2338C21.2173 32.007 22.1274 31.7056 23.0087 31.3324C21.5011 33.3868 19.496 35.0244 17.1818 36.0912C18.2653 36.0194 19.3382 35.8336 20.3827 35.5368C24.1653 34.421 27.3457 31.8767 29.2506 28.4513C28.8662 30.6181 28.0022 32.6828 26.7266 34.4857C27.6383 33.8836 28.4716 33.1931 29.2336 32.4039C31.3358 30.2065 32.7168 27.4206 33.1794 24.4272C33.4992 25.9103 33.5876 27.441 33.4515 28.9513C40.2275 19.5017 34.0162 9.70519 31.4106 7.1234C31.3766 7.19143 31.363 7.30028 31.3562 7.41594L31.2609 8.04523L31.1011 8.66431L30.8766 9.26639L30.5942 9.83786L30.2541 10.3719L29.8697 10.8821C29.7336 11.0522 29.5772 11.2019 29.4275 11.3516L29.1554 11.5897L28.9411 11.7768C28.7741 11.9098 28.5992 12.0325 28.4172 12.1441L27.8628 12.4639L27.2709 12.7258C27.0712 12.8014 26.868 12.8672 26.662 12.9231L26.0327 13.0591C25.8184 13.0932 25.6007 13.117 25.3932 13.134L24.9442 13.1544C24.7299 13.1544 24.5122 13.134 24.3047 13.1204C24.0897 13.1045 23.876 13.0738 23.6652 13.0285C23.4509 12.9945 23.2434 12.9333 23.0359 12.8687H23.0257L23.6448 12.7938L24.2741 12.6578L24.8864 12.4605C25.0905 12.3856 25.2946 12.2904 25.4783 12.1985C25.6714 12.1047 25.8599 12.0014 26.0429 11.889L26.5668 11.5488C26.7352 11.4183 26.8954 11.2775 27.0464 11.1271C27.2032 10.9833 27.3509 10.83 27.4886 10.6678L27.8832 10.1576C27.9036 10.1304 27.9172 10.0896 27.941 10.0624L28.2131 9.61335L28.4955 9.04189L28.72 8.43981C28.788 8.24252 28.8322 8.03162 28.8798 7.82753L28.9751 7.19823L29.0091 6.55874L28.9921 6.10973L28.9172 5.48044L28.7812 4.85115L28.5771 4.24907C28.5023 4.05178 28.407 3.85449 28.3152 3.6708L27.9954 3.11634L27.6553 2.5993L27.2233 2.12308L26.9784 1.88497L25.6755 0.966548C25.6075 0.932533 25.5531 0.898516 25.4885 0.871304C25.1823 0.674013 24.8864 0.571965 24.5972 0.476721L24.5802 0.435902Z" fill="#EA2845"/>
<path d="M43.3643 24.3559C43.582 24.2524 43.8116 24.1758 44.048 24.128C44.5752 24.043 44.8746 23.9715 44.9596 23.9137C45.1025 23.8287 45.1977 23.7096 45.2453 23.6008C45.3032 23.3967 45.3304 22.9885 45.3304 22.332V21.0904L45.344 20.0767L45.2998 18.563V17.6684C45.2998 17.0697 45.2555 16.5697 45.1569 16.1989C45.1297 16.0561 45.0004 15.9132 44.7997 15.7703C44.5276 15.5663 44.1194 15.386 43.4459 15.1989L43.4323 14.5186L43.7588 14.4505C43.8609 14.4369 44.2453 14.3349 44.9154 14.1648L45.929 13.7668L46.1672 13.6376C46.2889 13.534 46.4173 13.4385 46.5515 13.3518C46.9359 13.0489 47.281 12.6993 47.5788 12.3109L48.334 12.2531L48.3067 13.8655C48.2931 14.0219 48.2931 14.1512 48.2931 14.2498L48.3067 14.9063C49.1061 14.226 49.8204 13.7498 50.4769 13.4777C51.2384 13.1414 52.0598 12.962 52.8921 12.9504C53.7303 12.9336 54.5545 13.1669 55.2596 13.6206C55.9263 14.0628 56.3821 14.573 56.6202 15.1513C56.8583 15.7295 56.9331 16.9201 56.9331 18.6753L56.8753 23.3559C56.8721 23.5426 56.9117 23.7276 56.991 23.8967C57.2436 24.0124 57.5138 24.0848 57.7903 24.111L58.4911 24.2403C58.5802 24.3752 58.6254 24.5344 58.6203 24.6961L58.6067 25.1655L55.797 24.9614L54.9704 24.9886H54.3139L52.4158 25.1315H51.9294C51.9158 25.0022 51.9158 24.9172 51.9158 24.8457L51.943 24.2879C52.0723 24.2607 52.4124 24.2199 52.9431 24.145C53.086 24.1314 53.2424 24.0872 53.4295 24.043C53.6166 23.9749 53.7289 23.8865 53.7561 23.8151C53.8241 23.645 53.8717 23.3457 53.8717 22.8864L53.8445 21.0326L53.8581 19.376C53.8581 17.3487 53.7425 16.0935 53.518 15.6105C53.1778 14.8825 52.6063 14.522 51.8784 14.522C51.3022 14.5355 50.7363 14.6772 50.2218 14.937C49.5676 15.2571 48.9664 15.6758 48.4394 16.1785L48.4122 16.4166L48.4394 17.3147L48.4258 18.2671L48.4836 20.5632L48.4564 20.9203C48.4564 22.4748 48.5142 23.3593 48.6435 23.56C48.7728 23.7606 49.2422 23.9749 50.0722 24.2165L50.1164 24.5736C50.1164 24.6893 50.0722 24.8594 50.0143 25.1009L49.2592 25.1145C48.9437 25.1048 48.6291 25.0764 48.3169 25.0294L46.7454 25.0158L43.4357 25.1179C43.3961 25.0231 43.3764 24.9212 43.3779 24.8185L43.3915 24.3627L43.3643 24.3559ZM60.2157 17.5324C60.4708 16.716 60.6851 16.1785 60.8858 15.92C61.413 15.1377 61.9845 14.5594 62.5866 14.0832C63.1886 13.6069 63.7431 13.3552 64.2261 13.2124C64.7248 13.0514 65.2433 12.9599 65.767 12.9402C66.4966 12.9204 67.2257 12.9924 67.9372 13.1545C68.4359 13.2598 68.9103 13.4583 69.3353 13.7396C69.8048 14.0641 70.2352 14.4419 70.6177 14.8655C70.9535 15.2696 71.2191 15.7273 71.4034 16.2194C71.6311 16.8161 71.752 17.4482 71.7606 18.0868L70.1619 18.0596C69.1961 18.0374 68.231 17.9943 67.2671 17.9303L66.1242 17.8725L64.5833 17.8861H63.3417L63.3145 18.2263C63.3145 18.7365 63.3825 19.2672 63.5016 19.8386C63.6206 20.4101 63.8145 20.8795 64.0594 21.3081C64.3016 21.7224 64.6161 22.0899 64.9881 22.3932C65.3282 22.7062 65.7432 22.9205 66.131 23.0633L66.9576 23.3354L68.4407 23.2674C68.8495 23.1839 69.2502 23.0644 69.638 22.9102C70.0853 22.6965 70.5103 22.439 70.9068 22.1415L71.7776 22.8218C70.9374 23.7334 70.0496 24.4205 69.1516 24.8628C68.2536 25.305 67.2399 25.475 66.0902 25.475C65.335 25.475 64.7193 25.4172 64.2363 25.2709C63.6201 25.1101 63.0358 24.8455 62.5083 24.4886C61.9919 24.1211 61.5333 23.6786 61.1477 23.1756C60.7395 22.6653 60.4912 22.1041 60.3075 21.5496C60.0796 20.8217 59.9503 20.2366 59.9503 19.808C59.9429 19.0513 60.0112 18.2958 60.1544 17.5528L60.2157 17.5324ZM68.5495 16.9201C68.5359 16.3758 68.4339 15.8792 68.2366 15.3792C68.0393 14.8791 67.7263 14.522 67.2943 14.2566C66.9214 13.9966 66.4801 13.8523 66.0256 13.8417C65.3452 13.8417 64.8112 14.1274 64.2839 14.6818C63.7567 15.2363 63.4846 16.0425 63.4131 16.9779L66.6787 16.9915L67.5631 16.9473L68.1617 16.9031L68.5461 16.9167L68.5495 16.9201ZM73.992 21.0768C74.1989 21.0298 74.4095 21.0014 74.6213 20.9918L74.9207 21.0054L75.0499 21.1482L76.0772 22.8048C76.4038 23.1892 76.7337 23.5055 77.0977 23.747C77.312 23.8899 77.6555 24.06 78.125 24.2165C78.4503 24.3318 78.7934 24.3894 79.1386 24.3865C79.7066 24.4011 80.2584 24.1965 80.6795 23.8151C81.1081 23.4171 81.3598 22.9987 81.3598 22.5463C81.3598 22.2469 81.2748 21.9884 81.1217 21.7775C80.9687 21.5666 80.6353 21.3489 80.1523 21.0972C79.9142 20.9952 79.3121 20.8251 78.3392 20.587L76.6793 20.1176C76.2403 19.9537 75.8346 19.7117 75.4819 19.4032C75.1471 19.1146 74.875 18.7603 74.6826 18.3623C74.4444 17.8181 74.3424 17.3487 74.3424 17.0017C74.3424 16.2738 74.4581 15.6887 74.6553 15.2193C74.8722 14.7556 75.1772 14.3385 75.5534 13.9913C75.8255 13.7192 76.2337 13.4811 76.7949 13.2634C77.3683 13.0445 77.9773 12.9338 78.591 12.9368C79.3944 12.9261 80.1971 12.9887 80.9891 13.1239C81.5932 13.2259 82.1797 13.4138 82.7307 13.6818C82.7987 13.8961 82.8736 14.4097 82.9858 15.1955L83.1423 16.6071C83.1423 16.6752 83.1287 16.75 83.0981 16.8214C82.8942 16.8873 82.6827 16.9262 82.4688 16.9371C82.3837 16.9371 82.2409 16.9235 82.0538 16.9099C81.9318 16.7153 81.8183 16.5156 81.7136 16.3112C81.2578 15.454 80.785 14.8553 80.302 14.5152C79.8189 14.175 79.2747 13.9879 78.6012 13.9879C77.9277 13.9879 77.3868 14.192 76.9446 14.5594C76.7827 14.701 76.6549 14.8773 76.5707 15.0752C76.4865 15.2731 76.448 15.4875 76.4582 15.7023C76.4582 16.0153 76.6283 16.3316 76.9684 16.6548C77.3086 16.9779 77.88 17.2398 78.71 17.4099C79.9686 17.682 80.8938 17.9678 81.4789 18.2365C82.3361 18.6345 82.9484 19.1209 83.2919 19.6651C83.6355 20.2094 83.8192 20.8353 83.8192 21.5496C83.8192 22.6619 83.3906 23.5906 82.5504 24.3321C81.7102 25.0737 80.5095 25.4308 78.8971 25.4308C78.3489 25.4049 77.802 25.3572 77.2576 25.288C76.8596 25.2437 76.3867 25.1451 75.8459 25.0022C75.4885 24.8793 75.1367 24.7408 74.7914 24.5872C74.7022 24.5356 74.6246 24.4661 74.5635 24.3831C74.5363 24.2981 74.4615 23.8967 74.3764 23.1858L74.1383 21.087L73.992 21.0768ZM85.7479 14.226C86.8704 13.7566 87.6868 13.2838 88.1868 12.8654C88.6868 12.447 89.2277 11.651 89.7992 10.6204H90.6155C90.7012 10.8735 90.7449 11.1389 90.7448 11.4061L90.7312 12.5763L90.687 13.4165L90.7006 13.743L91.0271 13.7566L92.3673 13.6988L93.4388 13.6716C93.4956 13.8954 93.5286 14.1246 93.5375 14.3553C93.5375 14.5832 93.4933 14.8417 93.4218 15.124C93.1853 15.1593 92.9466 15.1786 92.7075 15.1819C92.6395 15.1819 92.4796 15.1819 92.2517 15.1547H91.5101L91.2516 15.1411L90.5713 15.1683L90.5441 20.6108L90.6019 22.5939C90.6626 22.8668 90.7796 23.124 90.9455 23.3491C91.1736 23.4543 91.4222 23.5078 91.6734 23.5055C91.9285 23.5055 92.1156 23.4783 92.2449 23.4375C92.3742 23.3967 92.585 23.2504 92.8742 23.0225C92.932 22.9647 93.0307 22.9068 93.1463 22.8184C93.3598 22.9728 93.5519 23.1546 93.7178 23.3593L93.7756 23.5293C93.4246 24.0671 92.9312 24.4969 92.3503 24.7709C91.7517 25.0703 91.1088 25.2131 90.425 25.2131C89.527 25.2131 88.8127 24.9274 88.2548 24.3729C87.697 23.8185 87.4283 22.9307 87.4283 21.7469L87.4861 19.2365V15.1513L87.0439 15.1377L86.003 15.1513L85.8159 15.107C85.7631 15.0387 85.7333 14.9553 85.7309 14.8689L85.7581 14.1886L85.7479 14.226Z" fill="#EA2845"/>
</g>
<defs>
<clipPath id="clip0_2955_35977">
<rect width="93.6" height="36" fill="white" transform="translate(0.200195)"/>
</clipPath>
</defs>
</svg>
