<svg width="115" height="24" viewBox="0 0 115 24" fill="white" xmlns="http://www.w3.org/2000/svg">
<g clip-path="url(#clip0_2955_35967)">
<path d="M44.4589 20.0899C39.3472 20.1068 34.2522 20.0899 29.1405 20.1068C28.7229 20.1068 28.6059 20.0054 28.6059 19.5829C28.6226 17.8422 28.6226 16.1183 28.6059 14.3776C28.6059 13.9382 28.6895 13.7861 29.1739 13.7861C33.2332 13.803 37.2758 13.7861 41.3351 13.803C41.7527 13.803 41.8697 13.6847 41.8363 13.2115C41.7694 12.3158 41.8028 11.4201 41.8363 10.5243C41.853 10.0511 41.6859 9.96663 41.2683 9.96663C37.209 9.98353 33.1664 9.96663 29.1071 9.98353C28.7229 9.98353 28.5892 9.89903 28.5892 9.47652C28.6059 7.87099 28.6059 6.28236 28.6059 4.67682C28.6059 3.79801 28.6059 3.79801 29.4746 3.79801C34.5028 3.79801 39.5143 3.79801 44.5425 3.81491C44.9434 3.81491 45.0937 3.73041 45.077 3.291C45.0436 2.41218 45.0603 1.53336 45.0603 0.671448C45.0603 0.0123349 45.0603 0.0123346 44.4088 0.0123346C37.9774 0.0123346 31.5627 0.0123349 25.1313 -0.00456543C24.6469 -0.00456543 24.5299 0.113737 24.5299 0.603846C24.5466 8.07379 24.5466 15.5606 24.5466 23.0306C24.5466 23.1151 24.5466 23.2841 24.5466 23.4193C24.5466 23.5038 24.4464 23.5376 24.3963 23.47C23.8116 22.7433 20.8716 19.059 5.87051 0.367242C5.63664 0.0799363 5.41948 -0.00456543 5.06868 -0.00456543C3.71558 0.0123349 2.36248 0.0123349 1.00937 -0.00456543C0.575046 -0.0214658 0.441406 0.0968364 0.441406 0.553145C0.458111 3.46 0.458111 18.6872 0.441406 23.3855C0.441406 23.8756 0.591751 23.977 1.25995 23.8925C2.01167 23.7911 2.76339 23.808 3.51512 23.8925C4.30025 23.977 4.51741 23.9263 4.51741 23.3179C4.50071 17.4873 4.50071 11.6736 4.50071 5.84295C4.50071 5.65704 4.45059 5.45424 4.58423 5.25144C4.68446 5.33594 4.76799 5.40354 4.8181 5.48804C5.80369 6.72176 17.8313 21.9152 18.8168 22.9968C19.1677 23.6559 19.602 23.9939 20.4372 23.9939C25.2148 23.9432 41.2516 23.9601 44.509 23.977C44.9935 23.977 45.077 23.8249 44.9768 23.0982C44.8766 22.4391 44.8933 21.7631 44.9768 21.087C45.1605 20.2589 45.0603 20.0899 44.4589 20.0899Z" fill="white"/>
<path d="M71.4044 22.2871C70.2017 20.766 68.9989 19.245 67.7962 17.724C66.3428 15.8988 64.8895 14.0566 63.4195 12.2314C63.2357 12.0117 63.2691 11.8934 63.4362 11.6906C64.6556 10.1695 65.8751 8.61472 67.0946 7.09369C68.1136 5.80926 69.166 4.54174 70.185 3.27421C70.2852 3.13901 70.4021 3.02071 70.4857 2.86861C71.1204 2.05739 71.7719 1.22927 72.4067 0.418059C72.4735 0.333558 72.6072 0.249056 72.5404 0.113854C72.4735 -0.0213491 72.3399 0.046252 72.223 0.046252C70.7362 0.046252 69.2495 0.0462522 67.7795 0.0293519C67.4955 0.0293519 67.3284 0.130753 67.1447 0.350458C65.1401 2.88551 63.1188 5.40366 61.0975 7.9218C60.5462 8.59782 60.5295 8.61472 59.995 7.9556C58.7755 6.45148 57.5727 4.91355 56.37 3.40942C55.5347 2.3616 54.6828 1.33068 53.8475 0.282857C53.6805 0.0800529 53.4967 0.0124512 53.2462 0.0124512C51.7928 0.0293515 50.3395 0.0124516 48.8862 0.0293519C48.7525 0.0293519 48.5354 0.0124516 48.4852 0.113854C48.4351 0.215255 48.6022 0.401159 48.7024 0.536362C49.1868 1.14477 49.6546 1.73628 50.139 2.3447C50.9075 3.32492 51.6592 4.33894 52.461 5.28535C53.8809 6.99229 55.234 8.76682 56.654 10.4738C57.8734 11.9441 59.0428 13.482 60.2455 14.9861C61.465 16.5241 62.6844 18.0451 63.9039 19.5661C65.0231 20.9689 66.1424 22.3716 67.2449 23.7743C67.3952 23.9602 67.5623 23.9771 67.7795 23.9771C69.2829 23.9771 70.7863 23.9771 72.2898 23.9771C72.39 23.9771 72.5404 24.0447 72.6072 23.9095C72.6573 23.7912 72.5404 23.6898 72.4735 23.6053C72.106 23.149 71.7552 22.7096 71.4044 22.2871Z" fill="white"/>
<path d="M96.0103 3.37543C95.9769 2.41211 95.9769 1.44879 96.0103 0.502371C96.027 0.113664 95.9101 -0.00463867 95.5091 -0.00463867C92.2517 0.0122617 88.9942 0.0122614 85.7534 0.0122614C82.5294 0.0122614 79.3053 0.029162 76.098 -0.00463867C75.6302 -0.00463867 75.4465 0.0798627 75.4799 0.603773C75.53 1.48259 75.5133 2.36141 75.4799 3.22332C75.4632 3.67963 75.5801 3.81484 76.0479 3.81484C78.4534 3.78103 80.8589 3.81484 83.2477 3.79794C83.6653 3.79794 83.8992 3.88244 83.8157 4.35565C83.799 4.44015 83.8157 4.52465 83.8157 4.60915C83.8157 10.8792 83.8157 17.1323 83.8157 23.4023C83.8157 23.7741 83.8324 23.9938 84.3001 23.9769C85.269 23.9431 86.2379 23.96 87.2068 23.96C87.8583 23.96 87.8583 23.96 87.8583 23.3009C87.8583 16.9802 87.8583 10.6764 87.8416 4.35565C87.8416 3.91624 87.9585 3.79794 88.3928 3.79794C90.7816 3.81484 93.1704 3.79793 95.5425 3.81484C95.8934 3.81484 96.0103 3.74723 96.0103 3.37543Z" fill="white"/>
<path d="M56.7536 14.1241C56.503 13.803 56.3861 13.8199 56.1355 14.141C54.3314 16.4226 52.5272 18.6703 50.7064 20.9519C49.9213 21.9321 49.1361 22.9123 48.2842 23.977C50.0048 23.977 51.6085 23.977 53.2121 23.977C53.5128 23.977 53.6966 23.8925 53.8803 23.6559C55.5341 21.5603 57.1879 19.4816 58.8584 17.4028C59.0422 17.1662 59.0422 17.0141 58.8584 16.7944C58.1735 15.9156 57.4552 15.0199 56.7536 14.1241Z" fill="white"/>
<path d="M114.57 19.4814C114.135 18.8392 113.467 18.5012 112.749 18.2308C111.863 17.8928 110.895 17.8252 110.043 17.3519C109.408 16.997 109.274 16.5745 109.575 15.8985C109.809 15.6281 110.026 15.3408 110.41 15.2394C111.279 15.0197 112.081 15.1211 112.782 15.7126C112.966 16.5576 113.601 16.5069 114.252 16.4562C114.302 16.4562 114.352 16.4562 114.403 16.4562C114.803 16.5238 114.854 16.3041 114.787 15.983C114.753 15.8309 114.72 15.6957 114.653 15.5436C114.236 14.5465 113.501 13.9719 112.465 13.7522C110.878 13.4142 109.391 13.5494 108.188 14.8169C107.169 15.8985 107.386 17.7069 108.639 18.5012C109.174 18.8392 109.759 19.0927 110.377 19.2448C111.011 19.3969 111.646 19.549 112.248 19.7687C112.732 19.9377 113.133 20.2419 113.15 20.8503C113.166 21.4418 112.832 21.7967 112.365 22.0164C111.513 22.422 110.661 22.3713 109.809 21.9488C109.558 21.8305 109.358 21.6277 109.291 21.3573C109.157 20.7827 108.79 20.6475 108.272 20.7151C108.071 20.7489 107.871 20.732 107.67 20.7151C107.336 20.6813 107.303 20.8503 107.336 21.1376C107.42 22.0333 107.904 22.6925 108.639 23.1319C110.226 24.0783 111.897 24.0783 113.501 23.284C114.987 22.5403 115.438 20.7489 114.57 19.4814Z" fill="white"/>
<path d="M105.699 14.1073C105.699 13.8199 105.616 13.6678 105.298 13.7016C104.981 13.7185 104.663 13.7354 104.346 13.7016C103.945 13.6509 103.845 13.8199 103.845 14.2087C103.862 16.355 103.845 18.5182 103.862 20.6646C103.862 21.0195 103.811 21.3744 103.644 21.6955C103.411 22.1518 103.026 22.3208 102.525 22.3208C102.024 22.3039 101.473 22.2025 101.322 21.6786C101.139 21.0195 100.721 20.9857 100.203 21.0364C100.019 21.0533 99.8356 21.0364 99.6519 21.0364C99.3846 21.0364 99.3178 21.1378 99.3512 21.4082C99.418 22.2194 99.8189 22.8278 100.454 23.2841C100.738 23.5038 101.055 23.6221 101.406 23.6728C101.807 23.7404 102.224 23.8249 102.625 23.7573C102.926 23.7742 103.227 23.7404 103.511 23.6559C103.678 23.6728 103.811 23.5883 103.962 23.5038C103.995 23.47 104.029 23.4362 104.062 23.4024C104.179 23.301 104.346 23.301 104.463 23.1827C105.415 22.5405 105.666 21.5603 105.666 20.5125C105.716 18.383 105.699 16.2367 105.699 14.1073Z" fill="white"/>
<path d="M96.929 21.6616C96.361 21.6447 95.8599 22.1348 95.8599 22.7094C95.8599 23.3009 96.3276 23.7572 96.9457 23.7741C97.4802 23.791 97.9981 23.3009 97.9981 22.777C97.9981 22.1348 97.5471 21.6616 96.929 21.6616Z" fill="white"/>
</g>
<defs>
<clipPath id="clip0_2955_35967">
<rect width="114" height="24" fill="white" transform="translate(0.705078)"/>
</clipPath>
</defs>
</svg>
