<svg width="93" height="42" viewBox="0 0 93 42" fill="none" xmlns="http://www.w3.org/2000/svg">
<g clip-path="url(#clip0_2955_35996)">
<path d="M85.2206 9.07764C85.0058 9.07764 84.7731 9.13148 84.594 9.23917L78.525 12.7571C78.1312 12.9904 77.8984 13.4212 77.8984 13.8699V20.8698C77.8984 21.3185 78.1312 21.7493 78.525 21.9826L80.1184 22.898C80.8882 23.2749 81.1746 23.2749 81.5148 23.2749C82.6606 23.2749 83.3051 22.5749 83.3051 21.3724V14.4622C83.3051 14.3724 83.2155 14.3006 83.126 14.3006H82.3741C82.2846 14.3006 82.1951 14.3724 82.1951 14.4622V21.3903C82.1951 21.9288 81.6401 22.4672 80.745 22.0185L79.0979 21.0493C79.0442 21.0134 78.9905 20.9595 78.9905 20.8877V13.8699C78.9905 13.7981 79.0263 13.7442 79.0979 13.7083L85.149 10.2084C85.2027 10.1725 85.2744 10.1725 85.3281 10.2084L91.3792 13.6904C91.4329 13.7263 91.4866 13.7981 91.4866 13.8519V20.8698C91.4866 20.9416 91.4508 21.0134 91.3971 21.0313L85.3281 24.5313C85.2744 24.5672 85.2027 24.5672 85.149 24.5313L83.5915 23.598C83.5378 23.5621 83.4841 23.58 83.4304 23.598C83.0007 23.8492 82.9112 23.8672 82.5173 24.0108C82.4099 24.0467 82.2667 24.1005 82.571 24.2621L84.612 25.4646C84.8089 25.5723 85.0237 25.6261 85.2385 25.6261C85.4713 25.6261 85.6682 25.5723 85.8651 25.4646L91.9342 21.9647C92.328 21.7313 92.5608 21.3006 92.5608 20.8518V13.8699C92.5608 13.4212 92.328 12.9904 91.9342 12.7571L85.8651 9.23917C85.6682 9.13148 85.4534 9.09559 85.2206 9.07764ZM86.8498 14.1032C85.1311 14.1032 84.0928 14.8391 84.0928 16.0596C84.0928 17.3878 85.1132 17.7468 86.7782 17.9262C88.7654 18.1237 88.9086 18.4109 88.9086 18.8057C88.9086 19.4878 88.3715 19.7749 87.1004 19.7749C85.4892 19.7749 85.149 19.3801 85.0237 18.5724C85.0058 18.4826 84.9521 18.4109 84.8626 18.4109H84.0749C83.9675 18.4109 83.8958 18.5006 83.8958 18.5903C83.8958 19.6134 84.4508 20.816 87.1004 20.816C89.016 20.816 90.126 20.0621 90.126 18.7339C90.126 17.4237 89.2308 17.0647 87.369 16.8134C85.4892 16.5622 85.3102 16.4365 85.3102 16.0058C85.3102 15.6468 85.4713 15.1442 86.8498 15.1442C88.103 15.1442 88.5505 15.4135 88.7475 16.257C88.7654 16.3288 88.837 16.4006 88.9086 16.4006H89.6963C89.75 16.4006 89.7858 16.3647 89.8216 16.3288C89.8574 16.2929 89.8753 16.257 89.8753 16.2032C89.75 14.7673 88.8012 14.0853 86.8498 14.1032Z" fill="#83CD29"/>
<path d="M49.5583 -0.112061C49.4867 -0.112061 49.4151 -0.0941115 49.3614 -0.0582145C49.2361 0.0135795 49.1645 0.139218 49.1645 0.282806V10.1545C49.1645 10.2442 49.1108 10.334 49.0392 10.3878C48.9496 10.4417 48.8601 10.4417 48.7706 10.3878L47.1594 9.45449C46.9266 9.3109 46.6223 9.3109 46.3896 9.45449L39.9625 13.1698C39.7297 13.3134 39.5686 13.5826 39.5686 13.8519V21.2825C39.5686 21.5518 39.7118 21.821 39.9625 21.9466L46.3896 25.662C46.6223 25.8056 46.9266 25.8056 47.1594 25.662L53.5864 21.9466C53.8192 21.8031 53.9803 21.5518 53.9803 21.2825V2.7597C53.9803 2.47252 53.8192 2.22124 53.5864 2.07766L49.7553 -0.0582145C49.7016 -0.11206 49.6299 -0.112061 49.5583 -0.112061ZM8.22098 9.16731C8.09566 9.16731 7.98824 9.18526 7.88083 9.25705L1.43585 12.9903C1.20312 13.1339 1.04199 13.3852 1.04199 13.6544L1.05989 23.6338C1.05989 23.7774 1.13151 23.903 1.25682 23.9748C1.38214 24.0466 1.52537 24.0466 1.65068 23.9748L5.46396 21.7851C5.7146 21.6415 5.85782 21.3902 5.85782 21.121V16.4544C5.85782 16.1672 6.00104 15.9159 6.25168 15.7903L7.88083 14.839C8.00615 14.7672 8.13146 14.7313 8.27469 14.7313C8.41791 14.7313 8.54323 14.7672 8.66855 14.839L10.2977 15.7724C10.5304 15.9159 10.6916 16.1672 10.6916 16.4364V21.1031C10.6916 21.3723 10.8527 21.6236 11.0854 21.7672L14.8629 23.9748C14.9882 24.0466 15.1314 24.0466 15.2567 23.9748C15.3821 23.903 15.4537 23.7774 15.4537 23.6338L15.4716 13.6544C15.4716 13.3852 15.3284 13.116 15.0777 12.9903L8.63274 9.275C8.52532 9.20321 8.41791 9.18526 8.29259 9.16731H8.22098ZM65.9751 9.275C65.8319 9.275 65.7066 9.3109 65.5813 9.38269L59.1542 13.098C58.9214 13.2416 58.7603 13.4929 58.7603 13.7621V21.1928C58.7603 21.48 58.9214 21.7313 59.1542 21.8569L65.5275 25.5004C65.7603 25.644 66.0467 25.644 66.2795 25.5184L70.1464 23.3646C70.2718 23.2928 70.3434 23.1671 70.3434 23.0235C70.3434 22.88 70.2718 22.7543 70.1464 22.6825L63.6836 18.9672C63.5583 18.8954 63.4866 18.7518 63.4866 18.6262V16.2929C63.4866 16.1493 63.5762 16.0236 63.6836 15.9518L65.6887 14.7852C65.814 14.7134 65.9572 14.7134 66.0825 14.7852L68.0876 15.9518C68.213 16.0236 68.2846 16.1493 68.2846 16.2929V18.1236C68.2846 18.2672 68.3562 18.3928 68.4815 18.4646C68.6068 18.5364 68.75 18.5364 68.8754 18.4646L72.7244 16.2211C72.9572 16.0775 73.1183 15.8262 73.1183 15.557V13.7621C73.1183 13.4929 72.9751 13.2237 72.7244 13.098L66.3511 9.36474C66.2437 9.29295 66.1004 9.275 65.9751 9.275ZM46.7476 14.8211C46.7834 14.8211 46.8192 14.8211 46.855 14.839L49.0571 16.1134C49.1108 16.1493 49.1645 16.2211 49.1645 16.2749V18.8236C49.1645 18.8954 49.1287 18.9492 49.0571 18.9851L46.855 20.2595C46.8013 20.2954 46.7297 20.2954 46.6581 20.2595L44.4561 18.9851C44.4024 18.9492 44.3486 18.8774 44.3486 18.8236V16.2929C44.3486 16.2211 44.3844 16.1672 44.4561 16.1313L46.6581 14.857C46.6939 14.8211 46.7118 14.8211 46.7476 14.8211Z" fill="#BBB"/>
<path d="M27.52 9.22119C27.3767 9.22119 27.2514 9.25709 27.1261 9.32888L20.699 13.0263C20.4663 13.1699 20.3052 13.4391 20.3052 13.7083V21.139C20.3052 21.4082 20.4484 21.6774 20.699 21.8031L27.1261 25.5184C27.3588 25.662 27.6632 25.662 27.8959 25.5184L34.323 21.8031C34.5557 21.6595 34.7169 21.4082 34.7169 21.139V13.7263C34.7169 13.4391 34.5736 13.1878 34.323 13.0442L27.9138 9.32888C27.7885 9.25709 27.6632 9.22119 27.52 9.22119ZM65.9571 15.8621C65.9392 15.8621 65.9034 15.8621 65.8855 15.8801L64.6502 16.598C64.5965 16.616 64.5786 16.6698 64.5786 16.7237V18.1416C64.5786 18.1954 64.6144 18.2493 64.6502 18.2672L65.8855 18.9852C65.9213 19.0031 65.975 19.0031 66.0287 18.9852L67.264 18.2672C67.3177 18.2493 67.3356 18.1954 67.3356 18.1416V16.7237C67.3356 16.6698 67.2998 16.616 67.264 16.598L66.0287 15.8801C65.9929 15.8621 65.9929 15.8621 65.9571 15.8621Z" fill="#83CD29"/>
<path d="M36.696 42.3293V30.7175H37.3532V32.5293C37.4353 32.4469 37.5175 32.3646 37.5175 32.2822C38.0103 31.2117 39.1603 30.4705 40.3103 30.5528C41.7068 30.4705 42.9389 31.0469 43.596 32.2822C44.4996 33.9293 44.4996 35.8234 43.7603 37.4705C43.1032 38.8705 41.5425 39.6117 39.8996 39.3646C38.8318 39.2822 37.9282 38.6234 37.3532 37.7175V42.3293H36.696ZM37.3532 34.8352L37.5175 36.2352C37.7639 37.7999 38.6675 38.7058 40.146 38.8705C41.5425 39.1175 42.8568 38.294 43.3496 36.9764C43.9246 35.6587 43.8425 34.1764 43.2675 32.8587C42.7746 31.7058 41.4603 30.9646 40.2282 31.2117C38.996 31.294 38.0103 32.1175 37.6818 33.2705C37.5175 33.7646 37.4353 34.3411 37.3532 34.8352ZM57.1496 36.3999C56.9853 38.0469 55.5068 39.3646 53.8639 39.3646C51.2353 39.5293 50.0032 37.7175 49.8389 35.7411C49.6746 34.6705 49.921 33.5175 50.3318 32.5293C50.9889 31.1293 52.4675 30.3058 54.0282 30.5528C55.5068 30.7175 56.7389 31.7058 57.0675 33.1881C57.2318 33.8469 57.3139 34.5058 57.396 35.0822H50.496C50.3318 36.894 51.3175 38.3764 52.7139 38.7058C54.4389 39.1175 55.9175 38.3764 56.4925 36.7293C56.5746 36.3999 56.7389 36.3175 57.1496 36.3999ZM50.4139 34.5058H56.5746C56.5746 32.5293 55.3425 31.1293 53.6996 31.1293C51.8103 31.1293 50.496 32.4469 50.4139 34.5058ZM58.3818 36.4822H58.9568C59.0389 37.3881 59.5318 38.2117 60.3532 38.5411C61.421 39.0352 62.571 38.9528 63.5568 38.4587C64.1318 38.2117 64.4603 37.6352 64.3782 37.0587C64.3782 36.4822 64.0496 35.9058 63.4746 35.7411C62.8175 35.494 62.0782 35.3293 61.421 35.1646C60.6818 34.9999 60.0246 34.6705 59.3675 34.4234C58.2996 33.9293 58.2175 31.7881 59.4496 31.1293C60.7639 30.3881 62.3246 30.3881 63.6389 31.0469C64.4603 31.4587 64.871 32.3646 64.7889 33.2705H64.296L64.2139 33.1881C64.1318 31.5411 62.7353 31.0469 61.2568 31.1293C60.846 31.2117 60.3532 31.294 59.9425 31.5411C59.4496 31.7881 59.121 32.2822 59.2032 32.8587C59.2032 33.4352 59.5318 33.8469 60.0246 34.094C60.6818 34.3411 61.3389 34.5058 62.0782 34.6705L63.721 35.0822C64.4603 35.3293 65.0353 35.9881 65.0353 36.8117C65.1996 37.7175 64.7068 38.5411 63.9675 38.9528C62.571 39.7764 60.1889 39.5293 59.121 38.5411C58.7103 37.9646 58.3818 37.2234 58.3818 36.4822ZM72.8389 33.2705H72.2639C72.2639 33.1881 72.2639 33.1058 72.2639 33.0234C72.2639 32.1175 71.6068 31.3764 70.7853 31.2117C69.9639 30.9646 69.1425 31.0469 68.4032 31.294C67.746 31.4587 67.3353 32.0352 67.3353 32.694C67.3353 33.3528 67.746 33.9293 68.321 34.0117L70.9496 34.6705C71.196 34.7528 71.5246 34.8352 71.771 34.9175C72.5925 35.2469 73.1675 35.9881 73.1675 36.894C73.1675 37.7999 72.6746 38.6234 71.8532 38.9528C70.621 39.5293 69.2246 39.5293 67.9925 38.9528C67.0068 38.5411 66.3496 37.4705 66.3496 36.3999H66.9246C67.171 37.3881 67.8282 38.2117 68.7318 38.6234C69.7175 39.0352 70.7853 38.9528 71.6068 38.3764C72.0996 38.1293 72.4282 37.5528 72.4282 36.9764C72.4282 36.3999 72.0996 35.8234 71.5246 35.6587C70.8675 35.4117 70.1282 35.2469 69.471 35.0822C68.7318 34.9175 68.0746 34.6705 67.4175 34.3411C66.3496 33.8469 66.2675 31.7881 67.4996 31.1293C68.8139 30.3881 70.3746 30.3881 71.771 31.0469C72.5103 31.5411 72.921 32.3646 72.8389 33.2705ZM35.7103 39.1999C35.2175 39.3646 34.7246 39.1999 34.4782 38.7058L32.2603 35.6587L31.9318 35.2469L29.3853 38.7058C29.1389 39.1175 28.646 39.2822 28.2353 39.1999L31.521 34.7528L28.4818 30.7175C28.9746 30.5528 29.4675 30.7175 29.7139 31.1293L32.0139 34.2587L34.3139 31.2117C34.5603 30.7999 35.0532 30.6352 35.4639 30.7999L34.3139 32.3646L32.671 34.5058C32.5068 34.6705 32.5068 34.9175 32.671 35.0822L35.7103 39.1999ZM49.6746 30.7175V31.294C47.9496 31.2117 46.471 32.4469 46.3889 34.1764C46.3889 34.2587 46.3889 34.4234 46.3889 34.5058C46.3889 35.9058 46.3889 37.3058 46.3889 38.7058V39.1999H45.8139V30.7175H46.3889V32.4469C47.1282 31.2117 48.2782 30.7175 49.6746 30.7175ZM20.3496 34.7528L20.596 33.4352C21.3353 30.7999 24.3746 29.7293 26.4282 31.3764C27.6603 32.3646 27.9068 33.6822 27.9068 35.1646H21.0889C21.0068 37.8822 22.896 39.5293 25.4425 38.7058C26.2639 38.3764 26.921 37.7175 27.0853 36.894C27.2496 36.4822 27.4139 36.3999 27.8246 36.4822C27.6603 37.5528 27.0853 38.4587 26.1818 39.0352C24.621 39.8587 22.8139 39.6117 21.4996 38.4587C20.9246 37.7999 20.5139 36.894 20.4318 35.9881C20.4318 35.8234 20.3496 35.6587 20.3496 35.5764C20.3496 35.2469 20.3496 34.9175 20.3496 34.7528ZM21.0068 34.5058H27.1675C27.1675 32.5293 25.8532 31.1293 24.2103 31.1293C22.4032 31.1293 21.0889 32.5293 21.0068 34.5058Z" fill="#BBB"/>
</g>
<defs>
<clipPath id="clip0_2955_35996">
<rect width="92" height="42" fill="white" transform="translate(0.799805)"/>
</clipPath>
</defs>
</svg>
