<svg width="207" height="32" viewBox="0 0 207 32" fill="none" xmlns="http://www.w3.org/2000/svg">
<g clip-path="url(#clip0_2955_35980)">
<path d="M52.9172 16.4619H44.9736V8.6819H53.3485C56.414 8.6819 57.9467 9.99857 57.9467 12.6326C57.9467 15.1859 56.2695 16.4632 52.9172 16.4632M58.6265 8.59124C57.5312 7.6419 56.0149 7.16724 54.0577 7.16724L42.6816 7.22857V25.8419H44.9736L44.953 17.9179H53.4183C55.5405 17.9179 57.2122 17.4432 58.4314 16.4939C59.6506 15.5446 60.2606 14.2272 60.2606 12.5426C60.2606 10.8579 59.7163 9.54124 58.6279 8.59124H58.6265ZM73.4624 21.9332C73.2432 22.5421 72.8689 23.0869 72.3746 23.5166C71.3477 24.4926 69.7815 24.9799 67.6744 24.9799C65.7713 24.9799 64.3118 24.5132 63.2932 23.5572C62.2745 22.6012 61.7645 21.3392 61.7645 19.7486C61.7645 18.9206 61.898 18.1852 62.1643 17.5439C62.4306 16.9026 62.8174 16.3612 63.324 15.9199C64.3782 14.9846 65.8281 14.5166 67.6751 14.5166C71.766 14.5166 73.8122 16.2606 73.8122 19.7486C73.8122 20.5772 73.6958 21.3052 73.4699 21.9332M73.8854 15.0666C72.4889 13.8266 70.4215 13.1999 67.6819 13.1999C65.0943 13.1999 63.094 13.8332 61.6838 15.0999C60.4105 16.2466 59.767 17.7932 59.767 19.7412C59.767 21.6746 60.4242 23.2346 61.7385 24.4212C62.4642 25.0612 63.3096 25.5252 64.2755 25.8119C65.2414 26.0986 66.3744 26.2419 67.6751 26.2419C70.3996 26.2419 72.467 25.6286 73.8991 24.4019C75.1724 23.2819 75.8159 21.7352 75.8159 19.7406C75.8159 17.7406 75.1724 16.1806 73.8854 15.0592V15.0666ZM91.2172 22.4712C91.2172 24.9766 88.9123 26.2292 84.3031 26.2292C82.8943 26.2292 81.7073 26.1426 80.7434 25.9679C79.7795 25.7932 78.9957 25.5046 78.394 25.1026C77.9295 24.7966 77.549 24.3846 77.2857 23.9026C77.0118 23.4092 76.8338 22.7892 76.7517 22.0359L78.8964 22.0159C78.8964 23.0026 79.2716 23.7279 80.0225 24.1946C80.8283 24.7546 82.2542 25.0346 84.3031 25.0346C87.5247 25.0346 89.1361 24.2479 89.1361 22.6759C89.1361 21.7559 88.5885 21.1239 87.5151 20.7759C87.296 20.7092 85.9933 20.5326 83.6131 20.2466C81.2328 19.9606 79.7384 19.7032 79.1511 19.4766C77.8792 18.9832 77.2432 18.0966 77.2432 16.8179C77.2432 15.5646 77.8114 14.6312 78.9546 14.0192C79.516 13.7659 80.2176 13.5699 81.0603 13.4292C81.903 13.2886 82.8785 13.2192 83.9875 13.2192C88.4249 13.2192 90.6435 14.5752 90.6435 17.2859H88.6035C88.6035 15.3792 87.0427 14.4192 83.9245 14.4192C82.3377 14.4192 81.1541 14.6192 80.3744 14.9992C79.5947 15.3792 79.2052 15.9792 79.2052 16.7792C79.2052 17.5259 79.7323 18.0659 80.7851 18.3992C81.4012 18.5726 82.8169 18.7726 85.0335 18.9992C87.0174 19.1726 88.379 19.4192 89.1176 19.7326C90.5279 20.2659 91.2316 21.1726 91.2316 22.4506L91.2172 22.4712ZM99.6414 25.8666L98.7686 25.9866L98.2244 26.0266C96.8279 26.0266 95.8284 25.8299 95.2034 25.4352C94.5784 25.0406 94.2772 24.3506 94.2772 23.3686V14.8652H91.7402V13.6159H94.2642L94.2847 9.60257H96.2399V13.6159H99.6449V14.8852L96.2399 14.8652V23.1299C96.2399 23.7452 96.4076 24.1699 96.743 24.3966C97.0784 24.6232 97.6767 24.7472 98.5393 24.7472C98.6625 24.7606 98.7994 24.7566 98.95 24.7339C99.1783 24.6943 99.4045 24.644 99.6278 24.5832L99.6483 25.8499L99.6414 25.8666ZM113.165 23.0466C112.631 23.4732 112.023 23.7986 111.339 24.0266C110.655 24.2546 109.869 24.3599 108.98 24.3599C104.891 24.3599 102.847 22.7152 102.847 19.4266C102.847 17.8952 103.37 16.6966 104.416 15.8306C105.463 14.9646 106.935 14.5319 108.837 14.5319C110.752 14.5319 112.205 14.9686 113.197 15.8406C114.188 16.7126 114.684 17.8819 114.684 19.3472C114.684 20.9452 114.177 22.1772 113.166 23.0426M116.64 13.6192H114.685L114.664 15.7192C113.802 14.8659 113.186 14.3279 112.816 14.1012C111.721 13.5146 110.305 13.2226 108.567 13.2226C106.022 13.2226 104.077 13.7892 102.737 14.9212C101.464 15.9612 100.828 17.4659 100.828 19.4372C100.828 20.4106 100.989 21.2786 101.311 22.0372C101.633 22.7959 102.102 23.4526 102.719 23.9852C104.062 25.0772 105.961 25.6239 108.415 25.6239C111.361 25.6239 113.451 24.8392 114.685 23.2692V25.4426C114.685 26.8292 114.237 27.9012 113.341 28.6612C112.445 29.4212 110.97 29.7946 108.917 29.7946C106.987 29.7946 105.612 29.5279 104.791 29.0186C104.175 28.6206 103.751 27.9306 103.518 26.9486H101.506C101.725 28.3199 102.327 29.3119 103.285 29.9239C104.408 30.6292 106.297 30.9819 108.967 30.9819C114.074 30.9819 116.634 29.1332 116.634 25.4352V13.6246L116.64 13.6192ZM127.216 14.8546C126.628 14.7612 126.081 14.7212 125.576 14.7212C122.362 14.7212 120.755 16.4379 120.755 19.8699V25.8392H118.821L118.8 13.6246L120.756 13.6432V15.8232H120.859C121.187 14.9646 121.708 14.3132 122.418 13.8699C123.197 13.4406 124.36 13.2259 125.905 13.2259H127.218V14.8659L127.216 14.8546ZM129.035 18.9599C129.282 17.5719 129.836 16.4972 130.697 15.7359C131.258 15.2959 131.895 14.9646 132.605 14.7446C133.316 14.5246 134.111 14.4139 135.007 14.4139C136.744 14.4139 138.156 14.8779 139.265 15.8059C140.374 16.7339 140.916 17.7859 140.916 18.9592L129.035 18.9599ZM141.106 15.1912C140.422 14.5226 139.573 14.0286 138.56 13.7072C137.546 13.3859 136.369 13.2259 135 13.2259C132.467 13.2259 130.502 13.7992 129.104 14.9459C127.707 16.0926 127.01 17.6526 127.01 19.6272C127.01 21.6019 127.68 23.1606 129.022 24.3272C130.474 25.6072 132.514 26.2472 135.161 26.2472C136.216 26.2472 137.19 26.1306 138.087 25.8986C138.983 25.6666 139.767 25.3372 140.437 24.9119C141.615 24.0886 142.36 23.0719 142.676 21.8652H140.562C139.836 23.9539 138.031 24.9986 135.144 24.9986C133.106 24.9986 131.539 24.4879 130.445 23.4666C129.5 22.5912 129.029 21.4572 129.029 20.0639H142.969C142.969 17.9919 142.353 16.3672 141.1 15.1972L141.106 15.1912Z" fill="#231F20"/>
<path d="M163.633 20.8507C163.633 24.4774 160.63 26.2907 154.623 26.2907C151.024 26.2907 148.397 25.666 146.742 24.424C145.386 23.3974 144.71 21.832 144.71 19.7254H147.128C147.128 23.1107 149.626 24.8034 154.622 24.8034C157.018 24.8034 158.75 24.4567 159.825 23.7647C160.729 23.1527 161.181 22.1934 161.181 20.8887C161.181 19.5967 160.564 18.6914 159.332 18.1714C158.634 17.8914 156.936 17.538 154.219 17.1127C150.809 16.606 148.6 16.1007 147.586 15.5947C146.122 14.848 145.396 13.5834 145.396 11.7987C145.396 10.134 146.012 8.89535 147.265 8.08269C148.606 7.19069 150.907 6.74402 154.164 6.74402C160.051 6.74402 162.995 8.64802 162.995 12.456H160.556C160.556 9.60269 158.37 8.17735 153.999 8.17735C151.806 8.17735 150.203 8.46402 149.189 9.04402C148.229 9.65735 147.751 10.5574 147.751 11.744C147.751 12.984 148.368 13.8574 149.6 14.364C150.257 14.6574 152.187 15.064 155.391 15.584C158.403 16.024 160.436 16.5374 161.484 17.1174C162.921 17.8374 163.64 19.084 163.64 20.8507H163.633ZM183.28 22.7014C182.377 23.406 181.355 23.9347 180.218 24.288C179.081 24.6414 177.807 24.8167 176.396 24.8167C173.518 24.8167 171.193 24.0614 169.417 22.5514C167.641 21.0414 166.756 19.0287 166.756 16.5134C166.756 13.892 167.636 11.8494 169.397 10.3854C171.157 8.92135 173.49 8.19002 176.395 8.19002C179.341 8.19002 181.657 8.95535 183.342 10.4854C184.232 11.232 184.889 12.1027 185.315 13.1007C185.741 14.0987 185.952 15.2367 185.952 16.514C185.952 19.122 185.06 21.1847 183.279 22.7007M184.565 23.9354C185.824 23.07 186.757 22.022 187.36 20.79C187.963 19.558 188.265 18.1367 188.265 16.5247C188.265 13.6347 187.279 11.3247 185.307 9.57268C184.253 8.61402 182.98 7.90135 181.487 7.43535C179.995 6.96935 178.291 6.73535 176.374 6.73535C172.65 6.73535 169.734 7.61535 167.611 9.37202C165.489 11.1287 164.428 13.5134 164.428 16.5234C164.428 19.4527 165.499 21.8167 167.641 23.614C169.783 25.4114 172.709 26.3107 176.417 26.3107C177.868 26.3107 179.133 26.2154 180.214 26.024C181.295 25.8327 182.213 25.5394 182.966 25.144L186.538 27.5554L188.031 26.2207L184.571 23.936L184.565 23.9354ZM206.368 25.84H189.838V7.20002L192.11 7.16002V24.278H206.382L206.361 25.834L206.368 25.84Z" fill="#367FAF"/>
<path d="M27.0061 22.7113C27.2361 21.1313 27.167 20.8993 28.5929 21.1553L28.9558 21.182C30.0524 21.2233 31.4866 21.0367 32.3293 20.7133C34.1434 20.0187 35.2182 18.8587 33.4301 19.1633C29.3501 19.858 29.0694 18.7167 29.0694 18.7167C33.3774 13.44 35.1785 6.74134 33.6245 5.10134C29.3768 0.630006 22.0451 2.74467 21.915 2.80001L21.876 2.80667C21.0696 2.66867 20.1673 2.58667 19.1542 2.57334C17.3079 2.54801 15.9073 2.97334 14.8442 3.63801C14.8442 3.63801 1.7512 -0.815327 2.36047 9.23801C2.49053 11.3767 6.07422 25.42 10.348 21.178C11.9101 19.6267 13.4203 18.3153 13.4203 18.3153C14.2078 18.7448 15.1093 18.9347 16.0086 18.8607L16.0812 18.8093C16.0586 19.0027 16.0675 19.1893 16.1106 19.4133C15.0098 20.4287 15.3329 20.6067 13.1314 20.9813C10.9045 21.36 12.2127 22.0347 13.067 22.2113C14.1028 22.4247 16.4988 22.728 18.1178 20.858L18.0534 21.0713C18.4847 21.3567 18.4559 23.1213 18.5175 24.3827C18.5792 25.644 18.6818 26.8207 18.9926 27.5147C19.3034 28.2087 19.6717 29.9947 22.5647 29.484C24.9826 29.056 26.8316 28.4407 27.0007 22.714" fill="#231F20"/>
<path d="M27.0061 22.7113C27.2361 21.1313 27.167 20.8993 28.5929 21.1553L28.9558 21.182C30.0524 21.2233 31.4866 21.0367 32.3293 20.7133C34.1434 20.0187 35.2182 18.8587 33.4301 19.1633C29.3501 19.858 29.0694 18.7167 29.0694 18.7167C33.3774 13.44 35.1785 6.74134 33.6245 5.10134C29.3768 0.630006 22.0451 2.74467 21.915 2.80001L21.876 2.80667C21.0696 2.66867 20.1673 2.58667 19.1542 2.57334C17.3079 2.54801 15.9073 2.97334 14.8442 3.63801C14.8442 3.63801 1.7512 -0.815327 2.36047 9.23801C2.49053 11.3767 6.07422 25.42 10.348 21.178C11.9101 19.6267 13.4203 18.3153 13.4203 18.3153C14.2078 18.7448 15.1093 18.9347 16.0086 18.8607L16.0812 18.8093C16.0586 19.0027 16.0675 19.1893 16.1106 19.4133C15.0098 20.4287 15.3329 20.6067 13.1314 20.9813C10.9045 21.36 12.2127 22.0347 13.067 22.2113C14.1028 22.4247 16.4988 22.728 18.1178 20.858L18.0534 21.0713C18.4847 21.3567 18.4559 23.1213 18.5175 24.3827C18.5792 25.644 18.6818 26.8207 18.9926 27.5147C19.3034 28.2087 19.6717 29.9947 22.5647 29.484C24.9826 29.056 26.8316 28.4407 27.0007 22.714" stroke="#231F20" stroke-width="4.108"/>
<path d="M33.4288 19.1628C29.3488 19.8574 29.0681 18.7161 29.0681 18.7161C33.3761 13.4388 35.1772 6.74009 33.6232 5.10075C29.383 0.629418 22.0445 2.74475 21.9144 2.80008L21.8747 2.80675C21.0683 2.66875 20.1661 2.58675 19.1522 2.57342C17.306 2.54875 15.9053 2.97342 14.8429 3.63808C14.8429 3.63808 1.74925 -0.815249 2.35851 9.23809C2.48858 11.3768 6.07159 25.4208 10.346 21.1781C11.9082 19.6268 13.4176 18.3154 13.4176 18.3154C14.2051 18.7449 15.1066 18.9348 16.006 18.8608L16.0792 18.8094C16.0566 19.0028 16.0669 19.1894 16.1087 19.4134C15.0079 20.4288 15.331 20.6068 13.1308 20.9814C10.9032 21.3601 12.2121 22.0348 13.0665 22.2114C14.1022 22.4248 16.4982 22.7281 18.1172 20.8581L18.0528 21.0714C18.4841 21.3568 18.7874 22.9268 18.7374 24.3514C18.6874 25.7761 18.6525 26.7514 18.9927 27.5154C19.333 28.2794 19.6718 29.9954 22.5661 29.4848C24.984 29.0568 26.2375 27.9488 26.4113 26.0994C26.5346 24.7848 26.8152 24.9794 26.8324 23.8041L27.0569 23.2481C27.3157 21.4661 27.098 20.8914 28.5876 21.1588L28.9504 21.1854C30.0471 21.2268 31.4819 21.0401 32.3239 20.7168C34.138 20.0221 35.2128 18.8621 33.4247 19.1668L33.4288 19.1628Z" fill="#417BA2"/>
<path d="M18.2982 20.1846C18.1859 23.5 18.3255 26.8393 18.7192 27.6513C19.1128 28.4633 19.9541 30.0413 22.8485 29.5293C25.2663 29.1013 26.146 28.2733 26.5273 26.4453C26.8011 25.1006 27.3508 21.3653 27.42 20.6006M14.8288 3.56197C14.8288 3.56197 1.7194 -0.858027 2.33551 9.19997C2.47242 11.3386 6.04858 25.3826 10.3244 21.1333C11.8865 19.582 13.2988 18.3653 13.2988 18.3653M21.914 2.75531C21.4602 2.87264 29.2026 0.419307 33.6023 5.05997C35.1562 6.69997 33.3558 13.3986 29.0472 18.676" stroke="white" stroke-width="1.369" stroke-linecap="round" stroke-linejoin="round"/>
<path d="M29.0405 18.6754C29.0405 18.6754 29.3144 19.8154 33.4012 19.1207C35.1893 18.816 34.1132 19.976 32.2991 20.6714C30.8108 21.2414 27.4743 21.3874 27.4202 20.6C27.2798 18.5667 29.1761 19.1847 29.0392 18.6754C28.9159 18.2167 28.0671 17.7667 27.5057 16.644C27.0163 15.664 20.7902 8.14936 29.2322 9.26536C29.5416 9.21203 27.03 2.63603 19.1281 2.52936C11.2261 2.42269 11.4883 10.5494 11.4883 10.5494" stroke="white" stroke-width="1.369" stroke-linecap="round" stroke-linejoin="bevel"/>
<path d="M16.0877 19.3705C14.9856 20.3859 15.3101 20.5639 13.1085 20.9385C10.8809 21.3185 12.1898 21.9919 13.0441 22.1685C14.0799 22.3819 16.4759 22.6852 18.0949 20.8139C18.5877 20.2439 18.0921 19.3339 17.4151 19.1032C17.0879 18.9912 16.6504 18.8512 16.087 19.3699L16.0877 19.3705Z" stroke="white" stroke-width="1.369" stroke-linejoin="round"/>
<path d="M16.0154 19.3532C15.9045 18.7559 16.253 18.0465 16.6267 17.2145C17.1881 15.9679 18.4833 14.7199 17.4482 10.7632C16.676 7.81454 11.4946 10.1499 11.4925 10.5499C11.4904 10.9499 11.7266 12.5765 11.4056 14.4699C10.9866 16.9419 13.3107 19.0319 15.9867 18.8185" stroke="white" stroke-width="1.369" stroke-linecap="round" stroke-linejoin="round"/>
<path d="M14.7824 10.4884C14.7591 10.6251 15.0857 10.9884 15.5108 11.0378C15.9359 11.0871 16.298 10.8018 16.322 10.6658C16.346 10.5298 16.0194 10.3791 15.5936 10.3298C15.1678 10.2804 14.805 10.3524 14.7824 10.4884Z" fill="white" stroke="white" stroke-width="0.456"/>
<path d="M27.7143 10.2105C27.7376 10.3472 27.4117 10.7105 26.9859 10.7599C26.5601 10.8092 26.1973 10.5239 26.174 10.3865C26.1507 10.2492 26.4773 10.0999 26.9024 10.0505C27.3275 10.0012 27.6896 10.0725 27.7136 10.2092L27.7143 10.2105Z" fill="white" stroke="white" stroke-width="0.228"/>
<path d="M29.2342 9.26538C29.304 10.3367 28.9549 11.0654 28.9104 12.2067C28.8454 13.864 29.8674 15.76 28.3271 17.66" stroke="white" stroke-width="1.369" stroke-linecap="round" stroke-linejoin="round"/>
</g>
<defs>
<clipPath id="clip0_2955_35980">
<rect width="206" height="31" fill="white" transform="translate(0.799805 0.5)"/>
</clipPath>
</defs>
</svg>
