<svg width="101" height="36" viewBox="0 0 101 36" fill="none" xmlns="http://www.w3.org/2000/svg">
<g clip-path="url(#clip0_2955_35959)">
<path d="M20.0418 21.837C21.9094 21.837 23.4234 20.323 23.4234 18.4554C23.4234 16.5877 21.9094 15.0737 20.0418 15.0737C18.1742 15.0737 16.6602 16.5877 16.6602 18.4554C16.6602 20.323 18.1742 21.837 20.0418 21.837Z" fill="#00D8FF"/>
<path fill-rule="evenodd" clip-rule="evenodd" d="M20.0416 11.5798C24.5819 11.5798 28.7997 12.2313 31.98 13.3262C35.8117 14.6453 38.1676 16.6448 38.1676 18.4554C38.1676 20.3421 35.6708 22.4664 31.556 23.8297C28.4452 24.8603 24.3515 25.3984 20.0416 25.3984C15.6228 25.3984 11.4384 24.8934 8.29247 23.8184C4.31232 22.4579 1.91504 20.3062 1.91504 18.4554C1.91504 16.6595 4.16443 14.6755 7.94229 13.3583C11.1344 12.2454 15.4563 11.5798 20.041 11.5798H20.0416Z" stroke="#00D8FF" stroke-width="1.66272"/>
<path fill-rule="evenodd" clip-rule="evenodd" d="M14.0562 15.0375C16.3244 11.1044 18.9958 7.77612 21.533 5.56812C24.59 2.90781 27.4991 1.86596 29.0674 2.77037C30.7019 3.71293 31.2947 6.9371 30.4201 11.1826C29.7595 14.3924 28.1799 18.2072 26.0268 21.9408C23.8192 25.7688 21.2914 29.1413 18.7887 31.3288C15.6219 34.0971 12.5603 35.0989 10.957 34.1743C9.40121 33.2778 8.80627 30.3374 9.55261 26.4067C10.1832 23.0855 11.7657 19.0091 14.0554 15.0375L14.0562 15.0375Z" stroke="#00D8FF" stroke-width="1.66272"/>
<path fill-rule="evenodd" clip-rule="evenodd" d="M14.0621 21.951C11.7875 18.0224 10.2388 14.045 9.59234 10.7442C8.81419 6.76712 9.36437 3.72637 10.9313 2.81933C12.5642 1.87401 15.6536 2.9706 18.8949 5.84863C21.3455 8.02455 23.862 11.2977 26.0214 15.0277C28.2353 18.852 29.8946 22.7263 30.5401 25.987C31.3569 30.1132 30.6958 33.2659 29.094 34.1932C27.5398 35.0929 24.6957 34.1403 21.663 31.5306C19.1006 29.3257 16.3592 25.9187 14.0621 21.9509V21.951Z" stroke="#00D8FF" stroke-width="1.66272"/>
<path fill-rule="evenodd" clip-rule="evenodd" d="M57.579 27.0954L53.4341 20.8334C55.529 20.6485 57.4165 19.1307 57.4165 16.3577C57.4165 13.5361 55.4141 11.7302 52.6052 11.7302H46.4365V27.0837H48.3474V20.9832H51.4094L55.3227 27.0837L57.579 27.0954ZM52.3765 19.3145H48.3484V13.4446H52.3765C54.196 13.4446 55.4385 14.6414 55.4385 16.3684C55.4385 18.0954 54.195 19.3165 52.3765 19.3165V19.3145ZM64.6924 27.3708C66.5119 27.3708 68.0073 26.7724 69.1126 25.6681L68.2837 24.5394C67.408 25.4375 66.1198 25.9434 64.8539 25.9434C62.4604 25.9434 60.9864 24.194 60.8482 22.1002H69.8482V21.6623C69.8482 18.325 67.8682 15.7 64.5066 15.7C61.3298 15.7 59.0287 18.3017 59.0287 21.5242C59.0287 25.0006 61.3999 27.362 64.6914 27.362L64.6924 27.3708ZM68.1465 20.8324H60.8492C60.9416 19.1297 62.114 17.1254 64.4861 17.1254C67.0188 17.1254 68.1231 19.1744 68.1465 20.8324ZM81.3147 27.0944V19.4517C81.3147 16.7585 79.359 15.699 77.0103 15.699C75.1908 15.699 73.7644 16.2974 72.5677 17.5408L73.3733 18.7376C74.3628 17.679 75.4457 17.1954 76.7806 17.1954C78.3919 17.1954 79.5896 18.0468 79.5896 19.5432V21.5456C78.6915 20.5094 77.4257 20.0258 75.9059 20.0258C74.0184 20.0258 72.014 21.2002 72.014 23.6861C72.014 26.103 74.0164 27.3698 75.9059 27.3698C77.4024 27.3698 78.6692 26.8405 79.5896 25.8276V27.0925L81.3147 27.0944ZM76.5277 26.1273C74.9164 26.1273 73.7878 25.1154 73.7878 23.7104C73.7878 22.2831 74.9164 21.2702 76.5277 21.2702C77.7478 21.2702 78.9212 21.7304 79.5896 22.6518V24.7467C78.9221 25.6671 77.7478 26.1273 76.5277 26.1273ZM89.6628 27.3708C91.6885 27.3708 92.8853 26.5418 93.7376 25.4375L92.5866 24.3789C91.85 25.3684 90.9063 25.8286 89.765 25.8286C87.3938 25.8286 85.9217 23.9868 85.9217 21.5242C85.9217 19.0616 87.3948 17.2431 89.765 17.2431C90.916 17.2431 91.8598 17.6809 92.5866 18.6928L93.7376 17.6342C92.8863 16.5289 91.6885 15.7009 89.6628 15.7009C86.3479 15.7009 84.1149 18.2336 84.1149 21.5251C84.1149 24.8401 86.3479 27.363 89.6628 27.363V27.3708ZM98.9644 27.3708C99.9763 27.3708 100.599 27.0711 101.037 26.6576L100.531 25.3684C100.3 25.6214 99.8498 25.8286 99.3565 25.8286C98.5976 25.8286 98.2279 25.2302 98.2279 24.4013V17.4951H100.485V15.9763H98.2279V12.9377H96.5009V15.9763H94.659V17.4961H96.5009V24.771C96.5009 26.4289 97.3298 27.3727 98.9644 27.3727V27.3708Z" fill="#00D8FF"/>
</g>
<defs>
<clipPath id="clip0_2955_35959">
<rect width="100" height="36" fill="white" transform="translate(0.705078)"/>
</clipPath>
</defs>
</svg>
