<svg width="136" height="36" viewBox="0 0 136 36" fill="none" xmlns="http://www.w3.org/2000/svg">
<g clip-path="url(#clip0_2955_35950)">
<path d="M114.756 27.6387C114.474 27.8659 114.236 28.0679 113.989 28.2598C112.565 29.3403 110.944 29.6735 109.218 29.3352C107.122 28.9262 105.956 27.5226 105.456 25.513C105.305 24.9072 105.249 24.2861 105.249 23.66C105.249 20.6508 105.249 17.6365 105.249 14.6272C105.249 14.5262 105.249 14.4252 105.249 14.3243C105.249 14.198 105.325 14.1475 105.441 14.1475C105.542 14.1475 105.643 14.1475 105.744 14.1475C106.92 14.1475 108.102 14.1475 109.278 14.1475C109.813 14.1475 109.773 14.1122 109.773 14.6323C109.773 17.6112 109.773 20.5902 109.773 23.5641C109.773 23.9175 109.783 24.271 109.874 24.6143C110.101 25.4626 110.636 25.9523 111.505 26.0281C112.606 26.129 113.494 25.6443 114.297 24.9576C114.469 24.8112 114.403 24.6143 114.403 24.4376C114.408 22.1504 114.408 19.8631 114.408 17.5708C114.408 16.561 114.408 15.5512 114.408 14.5414C114.408 14.1425 114.413 14.1375 114.827 14.1375C116.039 14.1375 117.251 14.1375 118.462 14.1375C118.912 14.1375 118.917 14.1425 118.917 14.6171C118.917 16.9044 118.917 19.1916 118.917 21.4839C118.917 23.8569 118.917 26.23 118.917 28.6031C118.917 28.7192 118.912 28.8404 118.917 28.9565C118.922 29.1181 118.877 29.209 118.695 29.2039C117.771 29.1989 116.842 29.214 115.918 29.1888C115.468 29.1787 115.176 28.906 115.029 28.487C114.938 28.2194 114.857 27.9518 114.756 27.6387Z" fill="#303030"/>
<path d="M135.715 29.1586C135.564 29.2394 135.412 29.204 135.266 29.204C134.054 29.2091 132.842 29.1838 131.63 29.2141C130.934 29.2343 130.494 28.9364 130.161 28.3558C129.379 26.9824 128.576 25.6242 127.778 24.261C127.712 24.1499 127.637 24.0439 127.556 23.9176C126.778 25.3718 125.92 26.73 125.117 28.1235C125.016 28.3002 124.905 28.4669 124.784 28.6284C124.486 29.0324 124.102 29.2293 123.577 29.2141C122.466 29.1838 121.356 29.204 120.245 29.204C120.098 29.204 119.957 29.204 119.795 29.204C119.836 28.9768 119.957 28.8556 120.043 28.7193C121.532 26.422 123.022 24.1196 124.526 21.8273C124.723 21.5294 124.723 21.3274 124.521 21.0346C123.098 18.9342 121.699 16.8136 120.29 14.703C120.189 14.5516 120.093 14.395 119.997 14.2537C120.053 14.0921 120.174 14.1476 120.26 14.1476C121.588 14.1426 122.916 14.1577 124.249 14.1375C124.814 14.1325 125.193 14.3496 125.476 14.8394C126.299 16.2481 127.152 17.6366 128.01 19.0554C128.207 18.8382 128.278 18.5706 128.409 18.3485C129.066 17.2124 129.727 16.0814 130.363 14.9353C130.671 14.3748 131.085 14.1072 131.742 14.1325C132.852 14.1678 133.963 14.1426 135.074 14.1426C135.22 14.1426 135.362 14.1426 135.579 14.1426C135.437 14.3648 135.347 14.5162 135.246 14.6677C133.837 16.7227 132.438 18.7777 131.014 20.8175C130.797 21.1305 130.807 21.3375 131.009 21.6556C132.519 24.0035 134.004 26.3664 135.493 28.7244C135.579 28.8556 135.71 28.9768 135.715 29.1586Z" fill="#303030"/>
<path d="M29.3661 11.8503C28.9016 11.7039 28.4573 11.5676 28.013 11.4262C27.6949 11.3252 27.2859 11.3454 27.0738 11.1132C26.8618 10.8809 26.9426 10.477 26.8719 10.1488C26.4376 8.09381 25.6601 6.2004 24.2817 4.58469C23.2264 3.34766 21.9238 2.56001 20.2778 2.36309C19.7022 2.29745 19.1316 2.35299 18.5712 2.44388C17.4351 2.63574 16.3647 3.01947 15.3599 3.59002C14.1179 4.29689 13.2797 5.3774 12.5779 6.58413C11.6691 8.1443 11.1288 9.83069 10.9066 11.6231C10.4421 15.42 11.0682 19.02 12.8455 22.413C12.9061 22.5342 12.9869 22.6453 13.0374 22.7665C13.1787 23.13 13.416 23.2259 13.8099 23.2209C15.2388 23.2108 16.3849 24.3569 16.4556 25.801C16.5212 27.1339 15.466 28.3962 14.1482 28.5679C12.694 28.7547 11.3964 27.8458 11.1036 26.4523C10.9824 25.8868 11.0329 25.3415 11.2752 24.8315C11.3964 24.5791 11.3611 24.4074 11.2348 24.1853C10.0584 22.105 9.20511 19.9087 8.75069 17.5608C8.01857 13.7841 8.3821 10.1185 9.96247 6.61442C11.255 3.75664 13.3302 1.63097 16.3344 0.570665C19.6618 -0.600723 22.666 0.0708056 25.2865 2.39844C27.1597 4.05959 28.2402 6.2004 28.8865 8.58862C29.1187 9.45201 29.255 10.3306 29.3712 11.2141C29.4065 11.4111 29.4368 11.613 29.3661 11.8503Z" fill="#7649BB"/>
<path d="M6.40294 16.9648C6.59986 17.702 6.78667 18.4139 6.98359 19.1208C7.04923 19.3581 6.9028 19.4591 6.75638 19.5752C5.89299 20.2871 5.14067 21.1 4.50449 22.019C3.78247 23.0692 3.24726 24.1951 3.00996 25.4625C2.43436 28.5424 4.22174 32.4453 8.12468 33.3188C10.1746 33.7783 12.2195 33.7127 14.2038 33.0714C18.0512 31.8344 21.2725 29.6633 23.6809 26.3662C24.0394 25.8765 24.3272 25.3413 24.6453 24.8263C24.8119 24.5536 24.7665 24.3719 24.5847 24.1194C23.4891 22.6299 24.1757 20.5345 25.9227 19.9691C27.3617 19.4995 28.8865 20.2922 29.341 21.7413C29.7853 23.1702 28.9572 24.7303 27.5031 25.1191C27.1648 25.21 27.0032 25.3766 26.8517 25.6644C24.0192 31.0013 19.6063 34.258 13.7292 35.5606C12.2902 35.8787 10.8411 36.0201 9.37181 35.8535C7.23604 35.6111 5.277 34.9245 3.6209 33.5107C2.03043 32.1576 1.21753 30.3752 0.924683 28.3505C0.414725 24.8566 1.50028 21.8473 3.78752 19.2268C4.46409 18.4493 5.22651 17.7626 6.04951 17.1466C6.14544 17.0709 6.22623 16.98 6.40294 16.9648Z" fill="#7649BB"/>
<path d="M22.2721 34.4751C22.7972 34.056 23.3526 33.6723 23.8323 33.2078C24.2311 32.824 24.5593 32.8089 25.0642 33.0108C26.6648 33.6521 28.3411 33.8692 30.0628 33.7278C33.1529 33.4804 35.8491 31.0417 36.3389 27.9921C36.5408 26.7399 36.3591 25.513 35.9046 24.3264C34.8645 21.605 33.0418 19.5247 30.6283 17.9393C28.3764 16.4599 25.9226 15.4855 23.2567 15.0866C22.1913 14.9301 21.1209 14.8291 20.0404 14.9048C19.7425 14.925 19.5708 15.031 19.4093 15.2885C18.4297 16.8285 16.3344 17.0153 15.1276 15.6723C14.3854 14.8442 14.2289 13.8698 14.6379 12.8498C15.0469 11.8249 15.8446 11.2594 16.9605 11.1887C17.9248 11.1231 18.7175 11.4866 19.278 12.2641C19.4901 12.557 19.7021 12.6226 20.0303 12.6176C23.1355 12.557 26.1246 13.0922 28.9672 14.3595C32.3551 15.8742 35.1069 18.1514 37.0508 21.3424C38.0606 22.9935 38.6009 24.8111 38.6715 26.7449C38.7877 29.7794 37.5557 32.1576 35.0917 33.9096C33.2438 35.2223 31.1787 35.8888 28.9167 35.9747C26.7405 36.0554 24.6755 35.5808 22.6912 34.7225C22.5549 34.6518 22.4034 34.6114 22.2721 34.4751Z" fill="#7649BB"/>
<path d="M74.4345 29.0272C72.9703 26.6289 71.5061 24.2356 70.0368 21.8423C69.7338 21.3475 69.3249 20.9486 68.8502 20.6204C68.7291 20.5346 68.5725 20.4892 68.4968 20.3478C68.5119 20.3377 68.522 20.3225 68.5372 20.3175C68.6432 20.267 68.7493 20.2165 68.8553 20.166C71.3344 18.9643 72.6219 17.0053 72.6219 14.2333C72.6169 11.6937 71.4 9.87093 69.0572 8.88636C67.8 8.3562 66.4822 8.10375 65.1291 8.0886C62.6903 8.05831 60.2516 8.06336 57.8079 8.06336C57.1464 8.06336 57.2272 7.98762 57.2272 8.65915C57.2272 15.0513 57.2272 21.4485 57.2272 27.8406C57.2272 28.1789 57.2222 28.5122 57.2272 28.8505C57.2323 29.1988 57.2373 29.2089 57.5908 29.2089C58.9692 29.214 60.3526 29.214 61.731 29.2089C62.135 29.2089 62.135 29.2039 62.135 28.7949C62.135 27.1641 62.135 25.5282 62.135 23.8973C62.135 23.1753 62.14 22.4482 62.1299 21.7262C62.1249 21.499 62.1703 21.3829 62.4328 21.3929C62.8368 21.4131 63.2407 21.398 63.6446 21.4081C64.0587 21.4182 64.3919 21.6 64.6393 21.9231C64.7605 22.0847 64.8615 22.2563 64.9624 22.4331C66.048 24.3315 67.1436 26.2199 68.2141 28.1234C68.6281 28.8606 69.2239 29.2089 70.062 29.2039C71.4253 29.1938 72.7885 29.2039 74.1518 29.1988C74.2578 29.1988 74.384 29.2544 74.4648 29.1282C74.4547 29.0878 74.4547 29.0575 74.4345 29.0272ZM67.8202 14.7282C67.8152 15.0614 67.7798 15.3946 67.694 15.7279C67.4617 16.6165 66.9265 17.2426 66.0985 17.6213C65.6188 17.8434 65.1139 17.9596 64.5888 17.9747C63.8819 17.9949 63.1751 17.9747 62.4732 17.9949C62.2006 18 62.1047 17.899 62.14 17.6465C62.14 17.6314 62.14 17.6112 62.14 17.596C62.14 16.6721 62.14 15.7481 62.14 14.8241C62.14 13.9152 62.135 13.0064 62.14 12.1026C62.14 11.7441 62.1501 11.734 62.4985 11.7391C63.3871 11.7542 64.2808 11.6735 65.1644 11.8199C65.331 11.8451 65.4976 11.8754 65.6592 11.9158C67.078 12.2692 67.8505 13.269 67.8202 14.7282Z" fill="#303030"/>
<path d="M102.937 28.8758C102.922 28.7597 102.932 28.6385 102.932 28.5224C102.932 23.0896 102.932 17.6568 102.932 12.2239C102.932 10.7597 102.932 9.29547 102.932 7.83124C102.932 7.47275 102.927 7.4677 102.578 7.4677C101.669 7.46265 100.761 7.4677 99.8517 7.4677C99.4629 7.4677 99.0792 7.4778 98.6904 7.46265C98.4935 7.4576 98.4127 7.52829 98.4228 7.72521C98.4278 7.84134 98.4228 7.96251 98.4228 8.07864C98.4228 10.1993 98.4228 12.3199 98.4177 14.4354C98.4177 14.6071 98.4834 14.799 98.342 14.9757C98.2713 14.9353 98.2158 14.905 98.1602 14.8646C96.2618 13.5014 94.2623 13.5468 92.2478 14.5213C90.7229 15.2584 89.7687 16.5561 89.1779 18.1162C88.3852 20.2116 88.3802 22.3575 88.8396 24.5185C89.087 25.6646 89.5314 26.73 90.2837 27.6489C90.9501 28.4669 91.7782 29.0576 92.8183 29.2899C94.5754 29.6786 96.1911 29.3353 97.6351 28.2598C97.9835 28.0023 98.3016 27.6944 98.6904 27.3611C98.8015 27.7297 98.8924 28.0528 98.9984 28.3659C99.1903 28.9516 99.5033 29.1939 100.109 29.199C100.932 29.2091 101.76 29.1939 102.583 29.204C102.841 29.2141 102.977 29.1586 102.937 28.8758ZM98.1703 24.8568C97.4837 25.604 96.6405 25.9777 95.6205 25.9777C94.7319 25.9777 94.1159 25.5788 93.7372 24.7911C93.4646 24.2256 93.3333 23.6147 93.2778 22.9937C93.1667 21.7667 93.1616 20.5448 93.5151 19.3432C93.5959 19.0655 93.6968 18.8029 93.8332 18.5505C94.6865 16.9549 97.0494 16.6823 98.2713 18.0253C98.4127 18.1819 98.4278 18.3434 98.4278 18.5303C98.4278 19.4896 98.4278 20.4489 98.4278 21.4082C98.4278 22.3322 98.4177 23.2562 98.4329 24.1852C98.4379 24.4579 98.3521 24.6598 98.1703 24.8568Z" fill="#303030"/>
<path d="M78.5446 22.5088C81.0843 22.5037 83.624 22.5088 86.1687 22.5088C86.3353 22.5088 86.507 22.5138 86.6736 22.4987C87.2947 22.4532 87.5017 22.2563 87.5875 21.6403C87.7087 20.7618 87.6481 19.8883 87.4613 19.03C86.921 16.5509 85.4719 14.8897 83.0029 14.1778C82.0335 13.9001 81.0388 13.8496 80.0492 13.9506C77.3277 14.2283 75.2677 15.536 74.1367 18.0555C73.0158 20.5447 73.1774 23.0743 74.3286 25.5231C75.1667 27.3054 76.5855 28.492 78.4638 29.0524C80.7005 29.7239 82.9171 29.5674 85.073 28.6737C85.9364 28.3152 86.6888 27.78 87.335 27.0984C87.5118 26.9116 87.5168 26.7854 87.3502 26.5935C87.017 26.2148 86.6837 25.8311 86.3959 25.4171C85.9163 24.7102 85.2599 24.7455 84.6691 25.0232C84.3359 25.1797 84.0127 25.3615 83.6795 25.5281C82.8666 25.9371 82.0083 26.134 81.0944 26.0482C79.9937 25.9472 79.0899 25.4928 78.5244 24.5032C78.1861 23.9124 78.0195 23.2611 77.9538 22.5593C78.176 22.4684 78.3628 22.5088 78.5446 22.5088ZM78.0498 19.8025C78.1558 18.4493 78.9637 17.3991 80.1451 17.1164C80.6551 16.9952 81.1853 16.9851 81.6902 17.1063C83.0181 17.4344 83.5179 18.5049 83.5735 19.6459C83.5785 19.7873 83.5179 19.8681 83.3665 19.858C83.316 19.858 83.2655 19.858 83.215 19.858C81.569 19.858 79.928 19.858 78.282 19.858C78.2012 19.8631 78.1154 19.8833 78.0498 19.8025Z" fill="#303030"/>
</g>
<defs>
<clipPath id="clip0_2955_35950">
<rect width="134.912" height="36" fill="white" transform="translate(0.793457)"/>
</clipPath>
</defs>
</svg>
