<svg width="124" height="32" viewBox="0 0 124 32" fill="none" xmlns="http://www.w3.org/2000/svg">
<g clip-path="url(#clip0_2955_36109)">
<path d="M19.0856 4.83423C19.2814 4.83423 19.4694 4.91072 19.6096 5.04738C19.7498 5.18405 19.831 5.37006 19.836 5.56577L19.8363 5.58485V14.1769C19.8363 14.3727 19.7598 14.5608 19.6231 14.701C19.4865 14.8412 19.3004 14.9224 19.1047 14.9274L19.0856 14.9277H12.0795C11.8837 14.9277 11.6956 14.8512 11.5554 14.7145C11.4152 14.5778 11.3339 14.3917 11.329 14.196L11.3289 14.1769V5.58485C11.3289 5.38908 11.4054 5.20106 11.542 5.06087C11.6787 4.92068 11.8647 4.83941 12.0604 4.83436L12.0795 4.83423H19.0856ZM19.0856 5.16813H12.0795C11.9715 5.16816 11.8677 5.21003 11.79 5.28494C11.7122 5.35985 11.6665 5.46198 11.6625 5.56988L11.6621 5.58485V14.1769C11.6623 14.285 11.7043 14.3888 11.7793 14.4665C11.8543 14.5443 11.9565 14.59 12.0645 14.594L12.0795 14.5943H19.0856C19.1937 14.5941 19.2974 14.5521 19.3752 14.4771C19.4529 14.402 19.4986 14.2998 19.5026 14.1919L19.5029 14.1769V5.58485C19.5027 5.47427 19.4587 5.36828 19.3804 5.29015C19.3021 5.21202 19.1961 5.16813 19.0855 5.16813M13.0801 12.8424V13.3424H12.5795V12.8424H13.0801ZM18.669 12.8424V13.3424H13.3307V12.8424H18.669ZM13.0801 10.6737V11.1738H12.5795V10.6737H13.0801ZM18.669 10.6737V11.1738H13.3307V10.6737H18.669ZM13.0801 8.5884V9.08832H12.5795V8.5884H13.0801ZM18.669 8.5884V9.08832H13.3307V8.5884H18.669ZM18.669 6.66977V7.17036H12.5794V6.66964L18.669 6.66977ZM19.0856 16.6783V16.6836C19.2806 16.6836 19.4678 16.7593 19.6079 16.8949C19.7479 17.0305 19.8297 17.2153 19.836 17.4101L19.8363 17.429V26.0211C19.8363 26.2169 19.7598 26.405 19.6231 26.5452C19.4865 26.6854 19.3004 26.7666 19.1047 26.7716L19.0856 26.7719H12.0795C11.8843 26.7719 11.6969 26.6959 11.5568 26.56C11.4167 26.4242 11.335 26.2391 11.3291 26.044L11.3289 26.0211V17.429C11.3289 17.2333 11.4054 17.0452 11.542 16.9051C11.6787 16.7649 11.8647 16.6836 12.0604 16.6785L12.0795 16.6784L19.0856 16.6783ZM19.0856 17.0123H12.0795C11.9715 17.0123 11.8677 17.0542 11.79 17.1291C11.7122 17.204 11.6665 17.3062 11.6625 17.4141L11.6621 17.429V26.0211C11.6623 26.1292 11.7043 26.233 11.7793 26.3107C11.8543 26.3885 11.9565 26.4342 12.0645 26.4382L12.0795 26.4385H19.0856C19.1932 26.4383 19.2967 26.3966 19.3743 26.3222C19.452 26.2477 19.4979 26.1461 19.5026 26.0386L19.5029 26.0238V17.4317C19.5027 17.3237 19.4607 17.22 19.3857 17.1424C19.3107 17.0647 19.2085 17.0191 19.1006 17.0152L19.0856 17.015V17.0123ZM13.0801 24.6884V25.1891H12.5795V24.6884H13.0801ZM18.669 24.6924V25.1853H13.3307V24.6924H18.669ZM13.0801 22.5197V23.0203H12.5795V22.5197H13.0801ZM18.669 22.5236V23.0165H13.3307V22.5236H18.669ZM13.0801 20.435V20.935H12.5795V20.435H13.0801ZM18.669 20.4389V20.9312H13.3307V20.4387L18.669 20.4389ZM18.669 18.5163V19.0169H12.5794V18.5163H18.669ZM21.1062 9.88095V10.2975H23.6082V21.6305H21.1062V22.0478H24.0254V9.88095H23.6082H21.1062Z" fill="#8E8F8F"/>
<path d="M3.27856 2.52395C3.77187 1.71476 4.58463 1.24279 5.40561 0.968778L5.51757 0.932605L5.62941 0.898817C5.68532 0.88252 5.74111 0.867017 5.79676 0.852442L5.90766 0.824219C5.92621 0.819714 5.94463 0.815209 5.96291 0.810969L6.07289 0.785793L6.12735 0.774001L6.23573 0.751873L6.34293 0.731733L6.44866 0.713182L6.55294 0.696487L6.65537 0.68125L6.75593 0.667734L6.85438 0.655677L6.95058 0.644944L7.04439 0.635537L7.18007 0.623611L7.30926 0.614336L7.43143 0.607446L7.56419 0.601749L7.6857 0.598304L7.7599 0.597111L7.82827 0.596581H7.89068L7.97243 0.597641L8.01854 0.598569L8.10268 0.601484L8.13978 0.603339V2.60597C6.3685 2.43743 5.57813 2.97247 5.22965 3.54262L5.19825 3.59615C5.15493 3.6733 5.1175 3.7536 5.08628 3.83638L5.06747 3.88885C5.06442 3.89746 5.0615 3.90607 5.05872 3.91482L5.04269 3.96649L5.02838 4.01724L5.01592 4.06706C5.01394 4.07528 5.01195 4.08349 5.01023 4.09158L5.00002 4.13994L4.99552 4.16379L4.98757 4.21016L4.98068 4.25522L4.97525 4.29881L4.96902 4.36108L4.96491 4.41925L4.96292 4.46483L4.962 4.5071V4.54553L4.96266 4.57998L4.96398 4.61045L4.96624 4.64755L4.97048 4.69128V5.42706L4.9661 6.92923L4.9608 8.01177L4.95471 8.92232L4.94808 9.69176L4.94146 10.2977L4.93377 10.8876L4.92582 11.3904L4.91575 11.9232L4.90952 12.2008L4.90277 12.4632L4.89402 12.7553L4.89097 12.8468L4.89071 13.0158L4.88978 13.1193L4.88859 13.1893L4.88594 13.295L4.8817 13.3973L4.87825 13.4596L4.87428 13.5221L4.86924 13.5849L4.86023 13.6793L4.85308 13.7423L4.84473 13.8055L4.83532 13.8687L4.83016 13.9003L4.81889 13.9633L4.8128 13.9949L4.79955 14.0578L4.78497 14.1206L4.76894 14.1833C4.76324 14.2041 4.75741 14.2249 4.75119 14.2456L4.73184 14.3078L4.7109 14.3695L4.68811 14.4308C4.43159 15.0937 3.8507 15.684 2.53563 15.9574C3.81506 16.223 4.39953 16.7881 4.66652 17.4281L4.6909 17.4893C4.71448 17.5508 4.73529 17.6128 4.75357 17.6752L4.77119 17.7378C4.78232 17.7795 4.79239 17.8215 4.80167 17.8637L4.81465 17.9267L4.82062 17.9584L4.83175 18.0216L4.84168 18.0849L4.8503 18.1483L4.85798 18.2116L4.86461 18.2748L4.87017 18.3379L4.87494 18.4008L4.88064 18.4948L4.88355 18.557L4.88713 18.6615L4.88872 18.7304L4.88991 18.7989L4.89071 18.9002L4.89097 19.0685L4.89998 19.3619L4.90793 19.6716L4.91535 20.0037L4.92198 20.3554L4.92927 20.7865L4.93907 21.4987L4.9457 22.1023L4.94914 22.4417L4.95617 23.3091L4.96385 24.5959L4.96915 25.9887L4.97114 25.9875V27.2228L4.96915 27.2403L4.96677 27.2665L4.96531 27.2901L4.96332 27.3339L4.96266 27.3685V27.407L4.96359 27.4492L4.96557 27.4948L4.96955 27.5523L4.97339 27.5927L4.98108 27.6566L4.9877 27.7011L4.99552 27.7468L5.00479 27.7939L5.00983 27.8177L5.02122 27.8665L5.02758 27.8911L5.04136 27.9412L5.057 27.9919C5.05965 28.0006 5.06256 28.0092 5.06548 28.0177L5.0839 28.0693C5.09026 28.0867 5.09715 28.1042 5.10417 28.1217L5.12669 28.1741C5.40495 28.798 6.13861 29.4717 8.03643 29.3172L8.14044 29.308V31.3107L8.08731 31.3134L7.98873 31.3161L7.90764 31.3175H7.81131L7.7391 31.3168L7.66092 31.3152L7.57718 31.3128L7.46826 31.3085L7.39141 31.3046L7.31165 31.2999L7.2287 31.2942L7.1431 31.2875L7.05486 31.2796L6.96409 31.2707L6.87095 31.2605L6.77568 31.249L6.67842 31.2361C6.66198 31.2338 6.64555 31.2315 6.62913 31.2291L6.52922 31.214L6.47861 31.206L6.37632 31.1885C6.35908 31.1855 6.34186 31.1824 6.32464 31.1793L6.22036 31.1591C6.20282 31.1557 6.18528 31.1521 6.16776 31.1485L6.06176 31.126L5.9551 31.1014C5.91932 31.0929 5.88354 31.0841 5.84764 31.0749L5.73951 31.0464C4.74708 30.7758 3.70429 30.241 3.16806 29.1931C3.28439 27.9049 3.81413 26.8067 4.76563 26.1231C4.81041 26.0916 4.85573 26.0609 4.90171 26.0313L4.95365 25.9983C4.88925 26.0381 4.82592 26.0802 4.76377 26.1245C3.81413 26.8067 3.28439 27.9049 3.16806 29.1879C2.92929 28.7058 2.80418 28.1755 2.80235 27.6375L2.79043 27.0854L2.77492 26.416L2.75558 25.6326L2.72908 24.6341L2.70496 23.7681L2.67157 22.6342L2.63394 21.4197L2.57087 19.5085L2.55563 19.0653C2.5184 18.062 2.11573 17.5733 1.69663 17.3375L1.6472 17.3109C1.63902 17.3066 1.63081 17.3025 1.62256 17.2984L1.57313 17.2751C1.55686 17.2678 1.54047 17.2607 1.52398 17.2539L1.47508 17.2348C1.45904 17.2287 1.44288 17.223 1.42659 17.2176L1.37862 17.2019C1.36272 17.1972 1.34709 17.1927 1.33145 17.1883L1.29395 17.1784L1.25712 17.1695L1.22081 17.1615L1.1853 17.1545L1.13349 17.1455L1.09997 17.1406L1.06751 17.1364L1.02073 17.1312L0.979394 17.1309L0.894991 17.13C0.850914 17.1293 0.80683 17.1293 0.762754 17.13L0.717041 17.1312V14.7842C0.826885 14.7882 0.925069 14.7862 1.02073 14.781L1.06751 14.7757L1.09997 14.7716L1.13349 14.7666L1.1853 14.7576L1.22081 14.7505L1.25712 14.7426L1.29395 14.7337L1.33145 14.7239L1.37862 14.7101L1.42659 14.6946L1.47508 14.6774C1.96216 14.4952 2.51178 14.0271 2.55563 12.8468L2.61261 11.1494L2.65673 9.76291L2.68058 8.97612L2.71715 7.7139L2.741 6.83595L2.75836 6.16721L2.78022 5.2719L2.79294 4.71539L2.80235 4.27403C2.81693 3.57853 2.98838 3.01394 3.26041 2.55575L3.27869 2.52541L3.27856 2.52395ZM27.2141 2.57297V0.570478L27.2678 0.567828L27.3426 0.565576L27.3911 0.564648L27.4767 0.563721H27.542L27.6135 0.564516L27.7238 0.566768L27.8646 0.571803L27.94 0.575381L28.0185 0.579886L28.1418 0.588233L28.2276 0.595124L28.3158 0.603074L28.4066 0.612349L28.4994 0.622684L28.5946 0.634344L28.6916 0.647329L28.7904 0.661904L28.891 0.677805L28.9417 0.686417L29.0444 0.704835L29.1483 0.724975L29.2533 0.746705L29.3593 0.770556L29.4658 0.795996C29.5193 0.809246 29.5731 0.823424 29.6269 0.838132L29.7348 0.868872C30.7431 1.16501 31.7797 1.74232 32.2666 2.85997C32.4519 3.29686 32.5489 3.76609 32.5521 4.24064L32.5641 4.79277L32.5796 5.46217L32.5904 5.91003L32.6077 6.58049L32.6314 7.46334L32.6495 8.11048L32.6829 9.24443L32.7206 10.4589L32.7836 12.3701L32.7989 12.8134C32.8368 13.8334 33.2523 14.3212 33.6788 14.5524L33.7281 14.578L33.7527 14.5899L33.8018 14.6125L33.8508 14.6326C33.8589 14.6359 33.8671 14.639 33.8752 14.642L33.9235 14.6595L33.9475 14.6675L33.9951 14.6822L34.0185 14.6889L34.0882 14.7068L34.1337 14.717L34.1779 14.7256L34.221 14.733L34.2545 14.7381L34.287 14.7423L34.3338 14.7475C34.4158 14.7519 34.5011 14.754 34.5917 14.752L34.6375 14.7507V17.0983C34.5362 17.0948 34.4349 17.096 34.3338 17.1016L34.3029 17.1048L34.2708 17.1088L34.221 17.116L34.1692 17.125L34.1337 17.132L34.0974 17.1399L34.0605 17.1488L34.023 17.1586L33.9996 17.1652L33.9519 17.1798L33.9279 17.1878L33.8794 17.2051C33.8713 17.2082 33.8631 17.2112 33.855 17.2144L33.806 17.2347C33.3387 17.4359 32.8405 17.9144 32.799 19.0358L32.7418 20.7322L32.6978 22.1188L32.6739 22.9057L32.6373 24.1681L32.6135 25.046L32.5961 25.7148L32.5743 26.6101L32.5616 27.1666L32.5521 27.6078C32.5485 28.0205 32.4752 28.4296 32.3354 28.818L32.3187 28.8634L32.3195 28.8677C31.8202 30.1576 30.6121 30.764 29.4967 31.0462L29.3872 31.073L29.3329 31.0856L29.2246 31.1094L29.171 31.1204L29.0644 31.1414L29.0116 31.1512L28.9069 31.1695L28.8552 31.1779L28.7529 31.1939L28.6525 31.208L28.554 31.2207L28.4576 31.232L28.3635 31.2421L28.2719 31.2508L28.1394 31.2617L28.0546 31.2677L27.9334 31.2748L27.8195 31.2798L27.6803 31.2841L27.6011 31.2854L27.5282 31.2859H27.4622L27.4033 31.2853L27.3519 31.2843L27.2892 31.2825L27.2349 31.2802L27.2159 31.2792V29.2766C29.0703 29.453 29.8495 28.8584 30.1723 28.2596L30.2001 28.2059C30.2089 28.1882 30.2173 28.1702 30.2253 28.1524L30.2485 28.0991C30.2558 28.0815 30.2628 28.0638 30.2694 28.0461L30.2884 27.9938L30.3053 27.9419L30.3131 27.9162L30.3274 27.8654L30.3399 27.8155L30.3509 27.7666L30.3603 27.7189L30.3683 27.6725L30.375 27.6274L30.3806 27.5837L30.3868 27.5214L30.3897 27.4822L30.3929 27.4177L30.3938 27.3756V27.3371L30.3932 27.3024L30.3918 27.2721L30.3905 27.2462L30.3873 27.2087L30.3853 27.1912V26.0929L30.3884 25.0704L30.3934 24.0153L30.3994 23.1261L30.4072 22.2183L30.4162 21.4036L30.4226 20.9299L30.4285 20.5484L30.4365 20.1109L30.4421 19.834L30.4483 19.5705L30.4548 19.3221L30.4635 19.0351L30.4638 18.8668L30.4647 18.7643L30.4658 18.6951L30.4675 18.6254L30.4712 18.5199L30.4747 18.4492L30.4785 18.3861L30.4831 18.3229L30.4884 18.2594L30.4951 18.1958L30.5023 18.1322L30.5108 18.0684L30.5156 18.0366L30.5258 17.9728L30.5373 17.9092L30.5502 17.8456L30.5645 17.782C30.582 17.7082 30.6025 17.6347 30.6265 17.5618L30.6481 17.4995C30.678 17.4169 30.7128 17.3352 30.7532 17.2549L30.7844 17.1951C31.0873 16.6388 31.6756 16.1615 32.8189 15.9238C31.377 15.6245 30.8178 14.945 30.6008 14.2065L30.5833 14.1439C30.5722 14.1022 30.5621 14.0602 30.5528 14.0181L30.5398 13.955L30.5339 13.9235L30.5227 13.8601L30.5128 13.7968L30.5042 13.7335L30.4965 13.6702L30.4899 13.607L30.4843 13.544L30.4796 13.481L30.4739 13.3871L30.4709 13.3248L30.4674 13.2204L30.4658 13.1515L30.4646 13.0831L30.4638 12.9816L30.4635 12.8134L30.4573 12.6177L30.4505 12.3688L30.4429 12.0486L30.4358 11.7075L30.4292 11.3484L30.4215 10.8466L30.4124 10.125L30.4055 9.45074L30.3991 8.66964L30.3908 7.28062L30.3853 5.77541C30.4993 5.7126 30.6097 5.64357 30.7161 5.5687C31.2466 5.18869 31.6462 4.67644 31.9156 4.07382L31.9342 4.03169C31.6644 4.65259 31.2584 5.18008 30.7142 5.5695C30.6254 5.63177 30.534 5.69008 30.4399 5.74427L30.3834 5.77607V4.65855L30.3853 4.64106L30.3877 4.61469L30.3892 4.59111L30.3912 4.54738L30.3918 4.5128V4.47437L30.3909 4.43197L30.3889 4.38639L30.3865 4.34863L30.3812 4.28847L30.3734 4.22461L30.3668 4.18022L30.359 4.13437L30.3497 4.08734C30.3481 4.07938 30.3464 4.07143 30.3447 4.06349L30.3333 4.01486C30.3312 4.00658 30.3291 3.99832 30.3269 3.99008L30.3131 3.93999L30.2975 3.88925C30.2948 3.88077 30.2919 3.87215 30.289 3.86354L30.2706 3.81186C30.2642 3.79464 30.2573 3.77715 30.2503 3.75966L30.2278 3.70706C29.9495 3.08337 29.2159 2.4096 27.3181 2.56396L27.2141 2.57297Z" fill="#FE0902"/>
<path d="M4.84703 5.34572C4.8669 5.3603 4.88757 5.37395 4.90825 5.38733L4.97039 5.42708V4.6913L4.9684 4.67381L4.96615 4.64744L4.96456 4.62386L4.96257 4.58L4.96191 4.54555V4.50699L4.96284 4.46472L4.96482 4.41914L4.96734 4.38072L4.97065 4.34057L4.97516 4.2987L4.98059 4.2551L4.98735 4.21005L4.9953 4.16368L5.00484 4.11584L5.01014 4.09146L5.0218 4.04217L5.03518 3.99182L5.0426 3.96625L5.0585 3.91471L5.06738 3.88874L5.08619 3.83627C5.11614 3.75716 5.15298 3.67647 5.19816 3.59604L5.22956 3.54251C5.57804 2.97236 6.36841 2.43745 8.13983 2.60586V0.603227L8.10273 0.601372L8.03899 0.599119L7.99633 0.597927L7.89059 0.596602H7.82832L7.75981 0.596999L7.64639 0.599119L7.54277 0.602432L7.43134 0.607335L7.30917 0.614357L7.17999 0.623632L7.09015 0.631185L6.95049 0.644833L6.8543 0.655433L6.75585 0.667623L6.65528 0.681138L6.55285 0.696376L6.44858 0.713071L6.34284 0.731621L6.23565 0.751761L6.12726 0.773889C6.10905 0.777794 6.09085 0.78177 6.07267 0.785814L5.96283 0.810857C5.94454 0.815097 5.92612 0.819602 5.90757 0.824107L5.79667 0.85233C5.74102 0.866905 5.68537 0.882408 5.62932 0.898706L5.51749 0.932494L5.40552 0.968666C4.58454 1.24268 3.77178 1.71465 3.27848 2.52384C3.43801 3.70535 3.95874 4.71263 4.84703 5.34572ZM8.14036 31.3107V29.308C6.20305 29.4923 5.43918 28.8349 5.14344 28.2106L5.11919 28.1572C5.10778 28.131 5.097 28.1045 5.08686 28.0777L5.06804 28.0251C5.06506 28.0165 5.06215 28.0078 5.0593 27.9991L5.04326 27.9475L5.02895 27.8968L5.01637 27.8469L5.0055 27.798L4.99609 27.7503L4.98801 27.7039L4.98139 27.6589L4.97582 27.6151L4.96959 27.5529L4.96549 27.4947L4.9635 27.4491L4.96257 27.4068V27.3684L4.96323 27.334L4.96456 27.3035L4.96588 27.2777L4.96906 27.2402L4.97105 27.2216V25.9874C4.90122 26.0304 4.83272 26.0757 4.76567 26.123C3.81405 26.8066 3.28431 27.9048 3.16797 29.1931C3.70434 30.2409 4.74686 30.7757 5.73943 31.0463L5.84755 31.0748C5.88332 31.084 5.91923 31.0928 5.95501 31.1013L6.0618 31.1258L6.16767 31.1484L6.27248 31.1692C6.28997 31.1727 6.3072 31.1759 6.32455 31.179L6.42751 31.1973L6.47852 31.2058L6.57922 31.2217L6.62904 31.229L6.72723 31.2426L6.77559 31.2489L6.87099 31.2604L6.96401 31.2706L7.05477 31.2795L7.14302 31.2874L7.22861 31.294L7.31156 31.2997L7.39133 31.3045L7.50528 31.3101L7.57709 31.3127L7.66097 31.3151L7.73914 31.3167L7.81122 31.3174L7.90755 31.3172L7.98864 31.316L8.05357 31.3143L8.14036 31.3107ZM32.2665 2.85973C31.7484 1.67092 30.6088 1.09348 29.5427 0.815362L29.4363 0.788597L29.3305 0.763686L29.2781 0.751894L29.1737 0.729766L29.1217 0.719431L29.0189 0.699953L28.9174 0.682065L28.8172 0.665768L28.7187 0.650928L28.6218 0.637677L28.5268 0.625752L28.4339 0.61502L28.3431 0.605612L28.2548 0.597264L28.1269 0.586929L28.0051 0.578847L27.8901 0.572619L27.7823 0.568247L27.7147 0.566259L27.6332 0.564537L27.5578 0.563477H27.4892L27.4273 0.563874L27.3727 0.564669L27.3049 0.566392L27.255 0.568247L27.214 0.570234V2.573C29.1513 2.38855 29.9151 3.04589 30.2109 3.67024L30.2351 3.72377C30.2467 3.75027 30.2574 3.77691 30.2675 3.80327L30.2863 3.85574C30.2893 3.86449 30.2922 3.8731 30.295 3.88185L30.3111 3.93339L30.3254 3.98414L30.338 4.03396L30.3488 4.08298L30.3582 4.13068L30.3663 4.17706L30.3729 4.22211L30.3785 4.26584L30.3847 4.32811L30.3888 4.38615L30.3908 4.43186L30.3917 4.474V4.51242L30.3911 4.547L30.3898 4.57748L30.3876 4.61458L30.3833 4.65857V5.77596C30.4972 5.71301 30.6076 5.64401 30.7141 5.56925C31.5753 4.95286 32.0908 3.99103 32.2665 2.85973ZM30.7993 26.3466C30.6672 26.2526 30.5289 26.1678 30.3853 26.0927V27.191L30.3872 27.2085L30.3895 27.2347L30.3911 27.2583L30.3931 27.3022L30.3937 27.3367V27.3752L30.3928 27.4174L30.3896 27.482L30.3867 27.5212L30.3805 27.5835L30.3749 27.6272L30.3683 27.6722L30.3602 27.7186L30.3508 27.7663L30.3398 27.8153L30.3274 27.8652L30.313 27.9159L30.3052 27.9416L30.2883 27.9936L30.2693 28.046C30.2627 28.0635 30.2557 28.0813 30.2484 28.099L30.2253 28.1522C30.2172 28.1701 30.2088 28.1879 30.1999 28.2057L30.1722 28.2594C29.8494 28.8583 29.0702 29.4528 27.2158 29.2763V31.2789L27.2455 31.2805L27.3308 31.2836L27.4356 31.2854L27.4992 31.2858L27.6079 31.2852L27.6885 31.2837L27.7752 31.2812L27.8828 31.277L27.9976 31.271L28.0779 31.2658L28.2036 31.2565L28.2907 31.2489L28.3802 31.2401L28.4721 31.2302L28.5661 31.2189L28.6621 31.2065L28.76 31.1924L28.8594 31.177C28.8762 31.1744 28.8929 31.1716 28.9097 31.1687L29.0115 31.1509L29.1144 31.1315L29.1664 31.1211L29.2711 31.0991L29.3237 31.0875L29.4297 31.0626C30.5633 30.7878 31.81 30.1831 32.3195 28.8674C32.1178 27.8163 31.6101 26.9273 30.7993 26.3466Z" fill="#FFAB00"/>
</g>
<path d="M111.653 10.002H112.708L117.379 21.1359H117.412L122.033 10.002H123.088V21.9563H122.351V10.9061H122.318L117.764 21.9563H117.027L112.423 10.9061H112.39V21.9563H111.653V10.002Z" fill="#010202"/>
<path d="M101.106 10.002H106.096C106.62 10.002 107.112 10.0578 107.569 10.1694C108.027 10.2698 108.429 10.4428 108.775 10.6884C109.121 10.9228 109.389 11.2353 109.578 11.626C109.779 12.0167 109.88 12.5022 109.88 13.0826C109.88 13.8863 109.651 14.5672 109.193 15.1252C108.747 15.6722 108.122 16.0126 107.318 16.1466V16.18C107.865 16.247 108.295 16.3921 108.607 16.6154C108.931 16.8386 109.171 17.1121 109.327 17.4358C109.483 17.7594 109.584 18.1166 109.629 18.5073C109.673 18.898 109.696 19.2886 109.696 19.6793C109.696 19.9137 109.696 20.1425 109.696 20.3657C109.696 20.589 109.707 20.8011 109.729 21.002C109.751 21.1917 109.785 21.3703 109.829 21.5377C109.885 21.7052 109.958 21.8447 110.047 21.9563H109.227C109.07 21.6773 108.981 21.3536 108.959 20.9852C108.948 20.6057 108.942 20.2151 108.942 19.8132C108.942 19.4114 108.925 19.0152 108.892 18.6245C108.858 18.2227 108.752 17.8655 108.574 17.553C108.395 17.2404 108.111 16.9893 107.72 16.7995C107.34 16.6098 106.799 16.5149 106.096 16.5149H101.843V21.9563H101.106V10.002ZM106.096 15.8787C106.531 15.8787 106.933 15.8284 107.301 15.728C107.681 15.6164 108.004 15.4489 108.272 15.2257C108.54 15.0025 108.752 14.7178 108.909 14.3718C109.065 14.0258 109.143 13.6128 109.143 13.1329C109.143 12.6864 109.059 12.3069 108.892 11.9943C108.724 11.6707 108.501 11.4083 108.222 11.2074C107.943 11.0065 107.619 10.8614 107.251 10.7721C106.883 10.6828 106.498 10.6382 106.096 10.6382H101.843V15.8787H106.096Z" fill="#010202"/>
<path d="M99.53 15.9793C99.53 16.85 99.4016 17.6704 99.1449 18.4405C98.8882 19.1995 98.5142 19.8637 98.0231 20.4329C97.5432 20.991 96.9516 21.4319 96.2484 21.7556C95.5452 22.0793 94.7471 22.2411 93.8542 22.2411C92.9612 22.2411 92.1576 22.0793 91.4432 21.7556C90.74 21.4319 90.1429 20.991 89.6517 20.4329C89.1718 19.8637 88.8034 19.1995 88.5467 18.4405C88.29 17.6704 88.1616 16.85 88.1616 15.9793C88.1616 15.1087 88.29 14.2939 88.5467 13.5349C88.8034 12.7647 89.1718 12.1006 89.6517 11.5425C90.1429 10.9732 90.74 10.5268 91.4432 10.2031C92.1576 9.87938 92.9612 9.71753 93.8542 9.71753C94.7471 9.71753 95.5452 9.87938 96.2484 10.2031C96.9516 10.5268 97.5432 10.9732 98.0231 11.5425C98.5142 12.1006 98.8882 12.7647 99.1449 13.5349C99.4016 14.2939 99.53 15.1087 99.53 15.9793ZM88.8983 15.9793C88.8983 16.7495 89.0099 17.475 89.2332 18.1559C89.4564 18.8368 89.7801 19.4339 90.2042 19.9474C90.6284 20.4497 91.1474 20.8515 91.7613 21.1529C92.3752 21.4542 93.0728 21.6049 93.8542 21.6049C94.6355 21.6049 95.3275 21.4542 95.9303 21.1529C96.5442 20.8515 97.0632 20.4497 97.4874 19.9474C97.9115 19.4339 98.2352 18.8368 98.4584 18.1559C98.6817 17.475 98.7933 16.7495 98.7933 15.9793C98.7933 15.2092 98.6817 14.4836 98.4584 13.8028C98.2352 13.1219 97.9115 12.5303 97.4874 12.028C97.0632 11.5146 96.5442 11.1072 95.9303 10.8058C95.3275 10.5044 94.6355 10.3538 93.8542 10.3538C93.0728 10.3538 92.3752 10.5044 91.7613 10.8058C91.1474 11.1072 90.6284 11.5146 90.2042 12.028C89.7801 12.5303 89.4564 13.1219 89.2332 13.8028C89.0099 14.4836 88.8983 15.2092 88.8983 15.9793Z" fill="#010202"/>
<path d="M77.9404 10.002H86.8811V12.212H80.569V14.7736H86.3621V16.8163H80.569V19.7463H87.015V21.9563H77.9404V10.002Z" fill="#010202"/>
<path d="M69.4016 15.6275H71.4442C71.7456 15.6275 72.0358 15.6052 72.3148 15.5606C72.5939 15.5159 72.8394 15.4322 73.0515 15.3094C73.2636 15.1755 73.431 14.9913 73.5538 14.7569C73.6877 14.5225 73.7547 14.2156 73.7547 13.8361C73.7547 13.4565 73.6877 13.1496 73.5538 12.9152C73.431 12.6808 73.2636 12.5022 73.0515 12.3794C72.8394 12.2455 72.5939 12.1562 72.3148 12.1115C72.0358 12.0669 71.7456 12.0446 71.4442 12.0446H69.4016V15.6275ZM66.7729 10.002H72.1641C72.912 10.002 73.5482 10.1136 74.0728 10.3368C74.5974 10.5489 75.0216 10.8335 75.3453 11.1907C75.6801 11.5479 75.9201 11.9553 76.0652 12.4129C76.2215 12.8706 76.2996 13.3449 76.2996 13.8361C76.2996 14.316 76.2215 14.7904 76.0652 15.2592C75.9201 15.7168 75.6801 16.1242 75.3453 16.4814C75.0216 16.8386 74.5974 17.1288 74.0728 17.352C73.5482 17.5641 72.912 17.6702 72.1641 17.6702H69.4016V21.9563H66.7729V10.002Z" fill="#010202"/>
<path d="M58.7033 17.3018L54.3167 10.002H57.2634L60.0594 14.7234L62.8387 10.002H65.7687L61.3319 17.3688V21.9563H58.7033V17.3018Z" fill="#010202"/>
<path d="M48.0161 12.212H44.4331V10.002H54.2276V12.212H50.6447V21.9563H48.0161V12.212Z" fill="#010202"/>
<defs>
<clipPath id="clip0_2955_36109">
<rect width="33.9602" height="30.8729" fill="white" transform="translate(0.697021 0.563477)"/>
</clipPath>
</defs>
</svg>
