<svg width="111" height="26" viewBox="0 0 111 26" fill="none" xmlns="http://www.w3.org/2000/svg">
<g clip-path="url(#clip0_2955_36002)">
<path d="M14.5023 2.447H8.86229V19.913H6.56229V2.447H0.946289V0.373997H14.5023V2.447ZM23.4003 5.962L16.9823 22.145C15.8393 25.032 14.2323 26.478 12.1573 26.478C11.5773 26.478 11.0913 26.42 10.7003 26.3V24.296C11.1803 24.459 11.6223 24.54 12.0203 24.54C13.1483 24.54 13.9933 23.87 14.5543 22.525L15.6703 19.882L10.2203 5.962H12.7003L16.4753 16.697C16.5223 16.833 16.6153 17.189 16.7623 17.759H16.8423L17.1123 16.724L21.0763 5.962H23.4003ZM27.0543 17.898H27.0003V26.331H24.7643V5.961H27.0003V8.414H27.0543C28.1543 6.562 29.7593 5.634 31.8793 5.634C33.6773 5.634 35.0793 6.258 36.0893 7.506C37.0993 8.754 37.5993 10.428 37.5993 12.528C37.5993 14.861 37.0333 16.733 35.8993 18.136C34.7653 19.539 33.2093 20.24 31.2413 20.24C29.4413 20.236 28.0363 19.457 27.0563 17.895L27.0543 17.898ZM27.0003 12.27V14.22C27.0003 15.375 27.3763 16.35 28.1243 17.158C28.8723 17.966 29.8243 18.363 30.9803 18.363C32.3323 18.363 33.3943 17.843 34.1623 16.809C34.9303 15.775 35.3123 14.333 35.3123 12.492C35.3123 10.938 34.9523 9.722 34.2353 8.842C33.5183 7.962 32.5353 7.522 31.3213 7.522C30.0233 7.522 28.9763 7.975 28.1863 8.878C27.3963 9.781 27.0003 10.907 27.0003 12.27ZM51.1553 13.495H41.3053C41.3403 15.049 41.7583 16.245 42.5573 17.091C43.3563 17.937 44.4573 18.358 45.8553 18.358C47.4253 18.358 48.8703 17.838 50.1883 16.804V18.901C48.9633 19.791 47.3403 20.238 45.3243 20.238C43.3513 20.238 41.8043 19.606 40.6773 18.338C39.5503 17.07 38.9773 15.288 38.9773 12.99C38.9773 10.82 39.5933 9.05 40.8223 7.685C42.0513 6.32 43.5823 5.635 45.4073 5.635C47.2323 5.635 48.6433 6.225 49.6433 7.405C50.6433 8.585 51.1433 10.225 51.1433 12.323V13.493L51.1553 13.495ZM48.8553 11.6C48.8473 10.3 48.5333 9.306 47.9213 8.59C47.3093 7.874 46.4563 7.513 45.3673 7.513C44.3133 7.513 43.4173 7.889 42.6813 8.645C41.9453 9.401 41.4813 10.385 41.3173 11.602L48.8553 11.6ZM53.0993 19.122V16.425C53.3823 16.695 53.7193 16.945 54.1143 17.161C54.5093 17.377 54.9143 17.564 55.3623 17.711C55.8103 17.858 56.2383 17.978 56.6763 18.061C57.1143 18.144 57.5263 18.185 57.8963 18.185C59.1833 18.185 60.1483 17.925 60.7833 17.402C61.4183 16.879 61.7363 16.127 61.7363 15.147C61.7363 14.62 61.6313 14.163 61.4183 13.771C61.1932 13.3633 60.8949 13.0006 60.5383 12.701C60.1623 12.379 59.7203 12.069 59.2083 11.775L57.5583 10.841L55.8143 9.791C55.2996 9.45949 54.8271 9.0666 54.4073 8.621C54.0073 8.195 53.6943 7.711 53.4653 7.171C53.2363 6.631 53.1253 5.997 53.1253 5.271C53.1253 4.381 53.3033 3.608 53.6603 2.951C54.0173 2.294 54.4853 1.751 55.0703 1.323C55.6553 0.894996 56.3143 0.578997 57.0583 0.369997C57.7986 0.161297 58.5641 0.0556352 59.3333 0.0559959C61.0963 0.0559959 62.3793 0.288996 63.1853 0.749996V3.323C62.1313 2.525 60.7853 2.126 59.1203 2.126C58.6633 2.126 58.2053 2.18 57.7483 2.281C57.2913 2.382 56.8843 2.556 56.5283 2.793C56.1723 3.03 55.8813 3.333 55.6563 3.708C55.4313 4.083 55.3193 4.533 55.3193 5.072C55.3193 5.572 55.4043 6.002 55.5753 6.366C55.7463 6.73 55.9973 7.06 56.3313 7.362C56.6653 7.664 57.0673 7.952 57.5483 8.234L59.1983 9.16L61.0183 10.25C61.5923 10.63 62.0953 11.052 62.5263 11.517C62.9573 11.982 63.3013 12.494 63.5533 13.057C63.8053 13.62 63.9333 14.267 63.9333 14.991C63.9333 15.951 63.7593 16.771 63.4183 17.436C63.0906 18.0827 62.6121 18.6411 62.0233 19.064C61.4383 19.484 60.7633 19.784 59.9963 19.971C59.2293 20.158 58.4263 20.251 57.5783 20.251C57.2953 20.251 56.9463 20.228 56.5323 20.177L55.2623 19.96C54.8283 19.863 54.4223 19.747 54.0343 19.607C53.6443 19.457 53.3363 19.307 53.1003 19.127L53.0993 19.122ZM75.8293 19.272C74.7563 19.915 73.4843 20.242 72.0163 20.242C70.0283 20.242 68.4203 19.595 67.1993 18.3C65.9783 17.005 65.3663 15.328 65.3663 13.266C65.3663 10.968 66.0263 9.123 67.3423 7.728C68.6583 6.333 70.4153 5.635 72.6163 5.635C73.8413 5.635 74.9223 5.865 75.8603 6.317V8.617C74.8253 7.887 73.7173 7.527 72.5353 7.527C71.1093 7.527 69.9393 8.039 69.0283 9.062C68.1173 10.085 67.6603 11.426 67.6603 13.088C67.6603 14.723 68.0903 16.014 68.9473 16.956C69.8043 17.898 70.9573 18.374 72.4003 18.374C73.6173 18.374 74.7603 17.971 75.8343 17.161V19.281L75.8293 19.272ZM84.4753 8.22C84.0853 7.922 83.5223 7.77 82.7753 7.77C81.8223 7.77 81.0233 8.22 80.3853 9.12C79.7473 10.02 79.4253 11.244 79.4253 12.798V19.908H77.1893V5.958H79.4253V8.834H79.4793C79.7973 7.854 80.2813 7.086 80.9363 6.54C81.5913 5.994 82.3193 5.715 83.1293 5.715C83.7093 5.715 84.1563 5.777 84.4663 5.915L84.4753 8.22ZM87.0403 2.42C86.6403 2.42 86.3003 2.284 86.0173 2.013C85.7343 1.742 85.5953 1.397 85.5953 0.977997C85.5953 0.558997 85.7353 0.214997 86.0173 -0.064003C86.2993 -0.343003 86.6413 -0.479004 87.0403 -0.479004C87.4473 -0.479004 87.7963 -0.339003 88.0823 -0.064003C88.2228 0.0700197 88.3336 0.231983 88.4077 0.411451C88.4817 0.59092 88.5174 0.783914 88.5123 0.977997C88.5123 1.378 88.3693 1.718 88.0823 2.001C87.7953 2.276 87.4463 2.42 87.0403 2.42ZM88.1303 19.913H85.8943V5.963H88.1303V19.913ZM91.7343 17.898H91.6803V26.331H89.4443V5.961H91.6803V8.414H91.7343C92.8343 6.562 94.4393 5.634 96.5593 5.634C98.3573 5.634 99.7593 6.258 100.769 7.506C101.779 8.754 102.279 10.428 102.279 12.528C102.279 14.861 101.713 16.733 100.579 18.136C99.4453 19.539 97.8793 20.24 95.9213 20.24C94.1213 20.236 92.7163 19.457 91.7363 17.895L91.7343 17.898ZM91.6803 12.271V14.221C91.6803 15.376 92.0563 16.351 92.8043 17.159C93.5523 17.967 94.5043 18.364 95.6603 18.364C97.0123 18.364 98.0743 17.844 98.8423 16.81C99.6103 15.776 99.9923 14.334 99.9923 12.493C99.9923 10.939 99.6323 9.723 98.9153 8.843C98.1983 7.963 97.2153 7.523 96.0013 7.523C94.7033 7.523 93.6563 7.976 92.8663 8.879C92.0763 9.782 91.6803 10.909 91.6803 12.274V12.271ZM110.646 19.778C110.119 20.068 109.426 20.212 108.561 20.212C106.121 20.212 104.895 18.848 104.895 16.124V7.87H102.495V5.963H104.895V2.557L107.131 1.837V5.964H110.646V7.871H107.131V15.731C107.131 16.665 107.291 17.335 107.608 17.735C107.925 18.135 108.453 18.335 109.188 18.335C109.75 18.335 110.238 18.18 110.645 17.87L110.646 19.778Z" fill="#007ACC"/>
</g>
<defs>
<clipPath id="clip0_2955_36002">
<rect width="110" height="26" fill="white" transform="translate(0.799805)"/>
</clipPath>
</defs>
</svg>
