<svg width="85" height="36" viewBox="0 0 85 36" fill="none" xmlns="http://www.w3.org/2000/svg">
<g clip-path="url(#clip0_2955_35914)">
<path d="M55.7444 7.05054L53.4207 33.1219L42.964 36.0178L32.5337 33.1219L30.21 7.05054H55.7444Z" fill="#264DE4"/>
<path d="M51.4313 31.4582L53.4206 9.18921H42.9814V33.8083L51.4313 31.4582Z" fill="#2965F1"/>
<path d="M35.5352 18.8538L35.8256 22.0489H42.9816V18.8538H35.5352Z" fill="#EBEBEB"/>
<path d="M42.9815 12.3845H42.9639H34.9629L35.2534 15.5796H42.9815V12.3845Z" fill="#EBEBEB"/>
<path d="M42.9815 30.49V27.1629H42.9639L39.3991 26.2034L39.1702 23.6509H37.445H35.9663L36.4152 28.668L42.9639 30.49H42.9815Z" fill="#EBEBEB"/>
<path d="M36.2217 -0.0351562H40.0945V1.5844H37.8412V3.20396H40.0945V4.82352H36.2217V-0.0351562Z" fill="white"/>
<path d="M40.8691 -0.0351562H44.742V1.19712H42.4887V1.83086H44.742V4.89394H40.8691V3.59125H43.1224V2.86949H40.8691V-0.0351562Z" fill="white"/>
<path d="M45.5166 -0.0351562H49.3895V1.19712H47.1362V1.83086H49.3895V4.89394H45.5166V3.59125H47.7699V2.86949H45.5166V-0.0351562Z" fill="white"/>
<path d="M46.9071 22.0491L46.5287 26.2036L42.9639 27.163V30.4901L49.5213 28.6681L49.5741 28.1312L50.3223 19.7166L50.4015 18.854L50.9736 12.3845H42.9639V15.5796H47.4705L47.18 18.854H42.9639V22.0491H46.9071Z" fill="white"/>
<path d="M0.259766 7.05029H25.803L23.4793 33.1217L13.0226 36.0175L2.58348 33.1217L0.259766 7.05029Z" fill="#E44D26"/>
<path d="M21.4899 31.4582L23.4792 9.18042H13.04V33.7995L21.4899 31.4582Z" fill="#F16529"/>
<path d="M8.80631 18.8537L8.51585 15.5794H13.0489V12.3843H5.03027L5.89287 22.0576H13.0489V18.8625L8.80631 18.8537ZM6.01609 23.6508L6.46499 28.6767L13.0136 30.4987H13.0313V27.1716H13.0136L9.45766 26.2033L9.22881 23.6508H7.51242H6.01609Z" fill="#EBEBEB"/>
<path d="M20.3721 19.7163L20.4513 18.8537H13.0225V22.0488H16.9569L16.5873 26.1946L13.0225 27.154V30.4811L19.5799 28.6679L19.6327 28.131L20.3721 19.7163ZM13.0313 15.5794H20.7594L21.0498 12.3755H13.0401V15.5618L13.0313 15.5794Z" fill="white"/>
<path d="M2.63623 -0.0351562H4.26459V1.5668H5.75212V-0.0351562H7.38049V4.82352H5.75212V3.20396H4.26459V4.83233H2.63623V-0.0351562Z" fill="white"/>
<path d="M9.5104 1.5844H8.07568V-0.0351562H12.5647V1.5844H11.13V4.83233H9.5016L9.5104 1.5844Z" fill="white"/>
<path d="M13.2778 -0.0351562H14.9766L16.0152 1.67242L17.0539 -0.0351562H18.7526V4.82352H17.1331V2.42059L16.0152 4.14577H15.9888L14.871 2.42059V4.83233H13.2778V-0.0351562Z" fill="white"/>
<path d="M19.5625 -0.0351562H21.1909V3.22157H23.4794V4.83233H19.5713V-0.0351562H19.5625Z" fill="white"/>
<path d="M84.7733 7.05029L82.4407 33.1217L71.984 36.0175L61.5537 33.1217L59.23 7.05029H84.7733Z" fill="#E9C931"/>
<path d="M80.4513 31.4582L82.4406 9.18921H72.0015V33.8083L80.4513 31.4582Z" fill="#FEDD24"/>
<path d="M70.8839 12.1731H67.8913V28.3599L65.8316 27.955V25.8513L63.1294 25.288V30.2523L70.8839 32.2328V12.1731Z" fill="#EBEBEB"/>
<path d="M73.0229 12.1731H80.5662L80.2494 14.9193H75.9276V20.1653H80.0821L79.8005 30.3139L73.0229 32.2328V28.9848L77.82 27.5237V23.2019L73.0229 23.7037V12.1731Z" fill="white"/>
<path d="M71.6674 4.8267H67.7505V3.22474H70.039V-0.0319824H71.6674V4.8267Z" fill="white"/>
<path d="M72.3716 -0.0319824H76.2444V1.20029H73.9911V1.83403H76.2444V4.89711H72.3716V3.59442H74.6249V2.87266H72.3716V-0.0319824Z" fill="white"/>
</g>
<defs>
<clipPath id="clip0_2955_35914">
<rect width="84.4988" height="36" fill="white" transform="translate(0.294922)"/>
</clipPath>
</defs>
</svg>
